<?xml version="1.0" encoding="UTF-8" standalone="no"?>
<!-- Created with Inkscape (http://www.inkscape.org/) -->

<svg
   width="2373.8457"
   height="2701.5654"
   viewBox="0 0 645.14951 734.2152"
   version="1.1"
   id="svg1"
   inkscape:version="1.3.2 (091e20e, 2023-11-25, custom)"
   sodipodi:docname="For Exhibits.svg"
   xml:space="preserve"
   xmlns:inkscape="http://www.inkscape.org/namespaces/inkscape"
   xmlns:sodipodi="http://sodipodi.sourceforge.net/DTD/sodipodi-0.dtd"
   xmlns="http://www.w3.org/2000/svg"
   xmlns:svg="http://www.w3.org/2000/svg"><sodipodi:namedview
     id="namedview1"
     pagecolor="#505050"
     bordercolor="#eeeeee"
     borderopacity="1"
     inkscape:showpageshadow="0"
     inkscape:pageopacity="0"
     inkscape:pagecheckerboard="false"
     inkscape:deskcolor="#505050"
     inkscape:document-units="px"
     showborder="false"
     inkscape:zoom="0.11313709"
     inkscape:cx="32995.369"
     inkscape:cy="2010.8348"
     inkscape:window-width="1366"
     inkscape:window-height="745"
     inkscape:window-x="-8"
     inkscape:window-y="-8"
     inkscape:window-maximized="1"
     inkscape:current-layer="layer1"
     showguides="false"
     showgrid="true"
     borderlayer="true"
     inkscape:lockguides="false" /><defs
     id="defs1" /><g
     inkscape:label="Layer 1"
     inkscape:groupmode="layer"
     id="layer1"
     transform="translate(-7893.5771,-1370.3748)"><rect
       style="fill:none;stroke:none;stroke-width:0.248015;stroke-linecap:round;stroke-linejoin:round;stroke-dasharray:none"
       id="rect23"
       width="645.14972"
       height="734.21527"
       x="7893.5771"
       y="1370.3746" /><path
       id="path1311"
       style="fill:#023184;fill-opacity:1;stroke:none;stroke-width:1.71832;stroke-linecap:round;stroke-linejoin:round;stroke-dasharray:none"
       d="m 8217.7865,1370.8233 a 116.30618,116.30618 0 0 0 -70.9315,15.673 l -195.5529,115.9127 a 118.01793,118.01793 0 0 0 -57.8336,102.7328 l 2.7726,270.6243 a 119.25855,119.25855 0 0 0 59.6233,102.059 l 190.5964,110.04 a 125.83516,125.83516 0 0 0 119.6574,3.3407 l 211.9922,-107.0947 a 110.60472,110.60472 0 0 0 60.7313,-98.723 v -273.0239 a 117.85176,117.85176 0 0 0 -58.9255,-102.0625 l -215.6042,-124.479 a 116.30618,116.30618 0 0 0 -46.5255,-14.9994 z m 17.0168,64.2244 c 4.3225,-0.1154 11.5797,0.9702 27.6089,3.639 v 0 c 31.2788,5.2062 30.6396,4.8251 27.8293,16.7145 -2.5345,10.7193 -0.7041,15.061 8.4254,20.0023 4.2589,2.3062 6.0565,2.8766 12.3453,3.9052 8.9672,1.463 12.0495,1.2442 27.9824,-2.0355 10.4299,-2.1468 12.2357,-2.3368 16.1353,-1.6902 l 4.3929,0.7291 12.8233,13.9593 12.8222,13.9538 -1.3572,2.5489 c -1.2123,2.2717 -2.5485,3.0934 -12.2958,7.5811 -6.2487,2.875 -12.0657,6.061 -13.5692,7.4249 -5.8918,5.3574 -6.1049,13.8572 -0.4782,18.9603 4.1801,3.7897 6.9271,5.0001 19.0852,8.4049 6.0066,1.6812 12.0936,3.698 13.5261,4.4789 4.7605,2.6006 4.4818,4.0236 -3.8418,19.6793 -9.9225,18.6603 -9.1486,18.2189 -29.8706,16.9749 -18.5759,-1.116 -25.9042,0.044 -34.6913,5.4963 -4.0516,2.5137 -5.1548,3.638 -7.0386,7.1702 -2.7848,5.2191 -2.5432,6.7106 2.5635,15.8132 3.6495,6.5075 3.9496,7.5979 2.7261,9.895 l -1.3757,2.5812 -24.591,7.9385 -24.6318,7.9516 -4.3559,-0.7036 c -3.8559,-0.6235 -5.3351,-1.4349 -12.9372,-6.9941 -9.5396,-6.9822 -14.1493,-8.9268 -23.2994,-9.827 -11.4526,-1.1263 -24.8482,1.9264 -31.0478,7.082 -1.6042,1.3346 -5.0885,5.0092 -7.7414,8.1655 -8.8983,10.5884 -8.1461,10.4751 -40.2153,5.3049 -20.4414,-3.2952 -24.7345,-4.1649 -27.039,-5.3861 -3.7278,-1.9805 -4.0395,-3.7175 -2.175,-12.0786 0.8817,-3.9531 1.3015,-8.3833 0.9332,-9.8435 -2.0941,-8.3127 -16.2766,-15.2113 -30.5342,-14.8492 -3.1559,0.081 -10.0588,1.0126 -15.331,2.0792 -16.6892,3.3602 -17.6307,3.497 -20.5685,3.022 -1.5848,-0.2559 -3.6892,-0.9106 -4.681,-1.4531 -0.9911,-0.5431 -7.0565,-6.6386 -13.4785,-13.5452 -12.0122,-12.9171 -13.3995,-15.3996 -10.2421,-18.3355 0.7373,-0.6778 5.4681,-3.0901 10.5251,-5.345 12.765,-5.7028 15.7722,-7.7345 18.1894,-12.27 3.2945,-6.1885 1.6321,-12.5165 -4.4141,-16.8334 -4.0188,-2.8667 -7.0014,-4.0039 -19.7863,-7.5408 -17.8558,-4.9406 -17.8775,-4.9876 -8.0118,-23.0825 10.1074,-18.5377 10.0386,-18.5023 31.7237,-17.122 8.8508,0.5633 14.477,0.587 18.4385,0.074 9.7652,-1.2602 20.7689,-7.2363 23.8824,-12.9682 2.049,-3.7715 1.3058,-7.5629 -3.0696,-15.6721 -4.5412,-8.4134 -4.5836,-10.0721 -0.3366,-12.573 1.2163,-0.7162 12.2352,-4.4178 24.48,-8.2156 28.7511,-8.9268 28.1991,-8.9346 40.6873,0.6301 8.4331,6.4588 11.3719,7.8463 19.5362,9.2057 7.7436,1.2828 13.9318,1.1563 21.5672,-0.4609 8.3562,-1.7697 13.0331,-4.7627 20.3297,-13.0094 3.3609,-3.7974 7.2167,-7.447 8.574,-8.1055 1.7412,-0.8478 3.2785,-1.3479 5.8718,-1.4165 z m -26.7384,49.0926 c -26.4918,0.1511 -53.1896,6.1342 -73.8255,17.9236 -41.4007,23.6522 -42.6506,61.6602 -2.7156,84.8014 39.89,23.1154 105.5995,22.5389 146.6906,-1.196 40.9632,-23.661 42.0224,-61.4412 2.4413,-84.4742 -19.8131,-11.5293 -46.099,-17.2068 -72.5908,-17.0548 z m 260.3366,127.1415 c 16.4135,0.4222 27.8795,15.0469 27.8795,38.9605 v 62.6832 c 0,6.3148 -4.0655,13.4875 -9.0797,16.0206 l -38.9793,19.6929 c -5.0146,2.533 -9.0798,-0.5333 -9.0798,-6.8482 v -13.9962 c 0,-20.0207 -12.7987,-29.6738 -28.6962,-21.6427 l -98.2864,49.6527 c -15.8973,8.0311 -28.6948,30.6141 -28.6948,50.6348 v 118.7189 c 0,20.0207 12.7975,29.6738 28.6948,21.6427 l 98.2864,-49.6527 c 15.8975,-8.0313 28.6962,-30.6143 28.6962,-50.6348 v -19.3389 c 0,-3.3647 2.1653,-7.1867 4.8372,-8.5365 l 47.4645,-23.9778 c 2.6713,-1.3497 4.8371,0.2845 4.8371,3.6492 v 68.0248 c 0,31.8851 -20.3847,67.8509 -45.7015,80.6415 l -178.5528,90.2008 c -25.3183,12.7906 -45.7006,-2.5812 -45.7006,-34.466 v -216.0909 c 0,-31.8852 20.3823,-67.8524 45.7006,-80.6426 l 178.5528,-90.201 c 6.3291,-3.1976 12.3507,-4.6349 17.822,-4.4943 z m -468.8386,61.5196 c 3.1939,0.1595 6.9975,3.8034 8.7578,8.5264 l 13.6139,36.5287 c 1.8743,5.0288 0.7196,9.3868 -2.5797,9.7344 -3.3013,0.3478 -7.5001,-3.4495 -9.3772,-8.4819 l -13.6309,-36.5495 c -1.8805,-5.0413 -0.7219,-9.4041 2.587,-9.7426 0.2076,-0.021 0.4162,-0.026 0.6291,-0.021 z m 51.8488,13.8937 c 0.974,-0.061 2.0877,0.2322 3.2705,0.9253 3.7815,2.2172 6.8242,7.6785 6.7988,12.1988 l -0.193,32.8017 c -0.026,4.5203 -3.1136,6.3954 -6.8962,4.1868 -3.7829,-2.2092 -6.8296,-7.6672 -6.8025,-12.19 l 0.1929,-32.8237 c 0.021,-3.1096 1.4849,-4.9643 3.6291,-5.0989 z m -90.7202,9.3951 c 2.0021,0 4.4289,1.4287 6.4865,4.0531 l 23.8586,30.4263 c 3.2825,4.1866 4.3823,9.8652 2.4576,12.6854 -1.9258,2.8215 -6.1498,1.7155 -9.4352,-2.4709 l -23.8754,-30.423 c -3.295,-4.1988 -4.401,-9.8914 -2.4677,-12.7133 0.725,-1.058 1.7742,-1.5625 2.9756,-1.5576 z m 142.8255,37.6852 c 1.9738,0 4.3638,1.41 6.3916,4.0111 3.2441,4.1601 4.3307,9.8052 2.4278,12.6097 l -13.8212,20.3644 c -1.9059,2.8091 -6.0855,1.716 -9.3357,-2.4444 -3.2513,-4.161 -4.3411,-9.8136 -2.4321,-12.6219 l 13.8364,-20.3677 c 0.7147,-1.0515 1.7492,-1.5534 2.9332,-1.5512 z m -74.0269,13.102 c 7.5201,0.05 15.9331,2.5262 24.7997,7.6946 31.4243,18.3172 56.6444,63.5392 56.4221,101.057 -0.1574,26.5906 -13.2511,43.2659 -33.5365,42.6685 l -0.2503,42.6586 c -0.03,4.9737 -3.4241,7.0732 -7.5826,4.6877 l -29.8104,-17.0996 c -5.5272,-3.1703 -9.9784,-11.0949 -9.9404,-17.6993 l 0.2315,-39.8338 c -20.2959,-22.8374 -33.2395,-54.6723 -33.0842,-81.4207 0.1574,-27.1252 13.5344,-42.8412 32.7511,-42.713 z m -83.515,3.5732 c 0.9847,-0.065 2.1111,0.2278 3.3062,0.921 l 27.7011,16.0672 c 3.8112,2.2104 6.878,7.6789 6.853,12.2155 -0.026,4.5371 -3.1363,6.4262 -6.9478,4.2193 l -27.7011,-16.0428 c -3.8242,-2.2143 -6.9058,-7.6965 -6.8784,-12.2433 0.021,-3.1257 1.5001,-4.9947 3.667,-5.1369 z m 195.0104,50.8386 c 3.2077,-0.098 7.1506,3.5753 8.9429,8.4072 1.8497,4.9874 0.7084,9.3219 -2.5488,9.6823 l -23.6705,2.6158 c -3.2667,0.3614 -7.4208,-3.3951 -9.2772,-8.3918 -1.8564,-4.9969 -0.7109,-9.339 2.5581,-9.6967 l 23.6883,-2.5946 c 0.1027,-0.021 0.2035,-0.021 0.3072,-0.024 z m -13.9069,54.187 c 0.9669,-0.07 2.073,0.2148 3.246,0.8954 l 27.196,15.7721 c 3.7411,2.1703 6.7517,7.5719 6.7248,12.0663 -0.027,4.4947 -3.0809,6.3836 -6.8229,4.217 l -27.1947,-15.75 c -3.7542,-2.1735 -6.7767,-7.5884 -6.7492,-12.093 0.021,-3.0966 1.4727,-4.9559 3.6,-5.1078 z m -86.0207,81.4076 24.1444,13.8404 c -0.5501,3.3869 -1.4737,6.4753 -5.9261,6.7352 l -11.6775,-6.6876 c -3.2502,-3.4573 -6.1361,-9.9525 -6.5408,-13.888 z" /></g></svg>
