<?xml version="1.0" encoding="UTF-8" standalone="no"?>
<!-- Created with Inkscape (http://www.inkscape.org/) -->

<svg
   width="3095.0342"
   height="3621.9033"
   viewBox="0 0 818.89446 958.29525"
   version="1.1"
   id="svg1"
   inkscape:version="1.3.2 (091e20e, 2023-11-25, custom)"
   sodipodi:docname="For Exhibits.svg"
   xml:space="preserve"
   xmlns:inkscape="http://www.inkscape.org/namespaces/inkscape"
   xmlns:sodipodi="http://sodipodi.sourceforge.net/DTD/sodipodi-0.dtd"
   xmlns="http://www.w3.org/2000/svg"
   xmlns:svg="http://www.w3.org/2000/svg"><sodipodi:namedview
     id="namedview1"
     pagecolor="#505050"
     bordercolor="#eeeeee"
     borderopacity="1"
     inkscape:showpageshadow="0"
     inkscape:pageopacity="0"
     inkscape:pagecheckerboard="false"
     inkscape:deskcolor="#505050"
     inkscape:document-units="px"
     showborder="false"
     inkscape:zoom="0.058462225"
     inkscape:cx="7859.7761"
     inkscape:cy="11913.676"
     inkscape:window-width="1366"
     inkscape:window-height="745"
     inkscape:window-x="-8"
     inkscape:window-y="-8"
     inkscape:window-maximized="1"
     inkscape:current-layer="layer1"
     showguides="true"
     showgrid="false" /><defs
     id="defs1" /><g
     inkscape:label="Layer 1"
     inkscape:groupmode="layer"
     id="layer1"
     transform="translate(-3513.8936,-2912.9912)"><path
       style="fill:#ffffff;fill-opacity:1;stroke-width:0.999999"
       d="m 3950.5026,3869.7542 c -90.8362,-7.4229 -177.4638,-41.2529 -253.4515,-98.9786 -19.8028,-15.0436 -56.4921,-50.9637 -74.7217,-73.1545 -59.0826,-71.9238 -95.049,-156.4259 -105.8391,-248.6708 -3.5009,-29.9245 -3.4554,-84.4036 0.097,-113.0697 13.4117,-108.3339 61.0757,-206.2354 137.6747,-282.784 61.1956,-61.155 139.7256,-105.4608 223.3084,-125.9887 150.054,-36.8533 304.2023,-0.7718 423.5089,99.1316 l 7.7757,6.5112 -37.7092,42.9929 c -33.1953,37.8464 -38.0759,42.7173 -40.776,40.6926 -1.6863,-1.2653 -10.7811,-8.1348 -20.2095,-15.2655 -108.6026,-82.1363 -252.2702,-96.3501 -375.1742,-37.1172 -106.8391,51.4902 -179.4437,147.4352 -202.0983,267.0657 -4.5029,23.7807 -5.3203,85.6145 -1.4886,112.5866 9.5821,67.4442 37.3426,130.3896 80.0117,181.4223 56.6947,67.8074 131.6335,111.0733 219.0377,126.4607 30.5986,5.3865 82.2411,5.8441 113.3144,1.0034 74.0036,-11.5275 139.7897,-43.5691 195.6658,-95.3005 l 11.1553,-10.3277 4.942,4.3596 c 2.718,2.3976 21.2143,20.3597 41.1019,39.9152 l 36.16,35.5563 -15.6383,14.9643 c -54.5887,52.2352 -125.4966,92.0229 -200.7641,112.6514 -52.5916,14.4137 -111.0678,19.8229 -165.8798,15.3434 z m -7.844,-141.4506 c -8.1996,-4.0412 -10.3366,-8.9845 -14.8616,-34.3743 -2.1406,-12.01 -5.5112,-25.1997 -7.4898,-29.3112 -11.2566,-23.3913 -41.8758,-36.8912 -65.8957,-29.0541 -5.3161,1.7339 -16.2296,7.7488 -24.2527,13.3662 -25.3575,17.7533 -26.835,18.6044 -32.2835,18.6044 -2.9344,0 -7.1279,-0.9166 -9.3181,-2.0378 -2.1908,-1.1206 -18.1585,-16.0953 -35.4846,-33.2766 -32.4041,-32.1346 -37.0635,-38.7492 -34.4089,-48.8522 0.6203,-2.3472 6.4526,-11.6522 12.9686,-20.6781 16.4701,-22.8124 19.7202,-30.2071 19.6368,-44.6731 -0.1172,-19.7416 -8.8081,-37.5273 -23.1219,-47.303 -9.5076,-6.4932 -15.6452,-8.4015 -40.7063,-12.6563 -34.994,-5.9419 -35.0629,-6.0666 -35.0629,-63.9357 0,-59.3639 -0.083,-59.224 38.1696,-65.6435 15.6231,-2.6222 25.2417,-5.2761 31.5337,-8.7006 15.508,-8.4407 28.7598,-31.38 28.7598,-49.7832 0,-12.114 -4.7924,-22.9337 -19.8077,-44.7172 -15.5825,-22.6057 -17.2013,-27.4828 -12.2608,-36.9291 1.4163,-2.7077 16.8251,-19.0062 34.2421,-36.2186 40.9551,-40.4755 40.0034,-40.2308 70.3097,-18.0703 20.4728,14.9698 26.8075,17.6265 42.0854,17.6479 14.4936,0 25.006,-3.4058 36.6265,-11.9362 12.726,-9.3415 17.9918,-20.5051 22.889,-48.5255 2.2569,-12.9113 5.5111,-25.6242 7.2326,-28.2513 5.8944,-8.9955 11.5909,-9.9424 59.7684,-9.9348 58.8319,0 57.3764,-0.8132 63.5519,35.874 5.5656,33.0588 12.7445,45.0335 33.0953,55.2027 9.4986,4.7469 13.1339,5.5498 24.9578,5.516 16.8609,-0.069 21.9916,-2.2335 46.529,-19.8125 16.0766,-11.5172 19.0297,-12.9686 26.3878,-12.9686 h 8.285 l 35.1524,35.1518 35.1518,35.1525 v 8.2381 c 0,7.345 -1.5513,10.4387 -14.3138,28.5373 -8.1761,11.5943 -15.3199,23.8909 -16.6596,28.6771 -5.2541,18.7657 2.2267,44.0674 16.6893,56.4474 10.7418,9.194 16.6203,11.4406 40.838,15.6073 11.9713,2.0592 24.3899,5.0715 27.5958,6.6937 10.6626,5.3934 11.4931,9.7468 11.4855,60.1909 0,60.0509 0.9296,58.3694 -36.12,64.7013 -33.1843,5.6704 -44.791,12.6357 -54.9568,32.9796 -4.6841,9.3732 -5.5559,13.2263 -5.5559,24.5601 0,16.7472 1.7932,21.0358 19.0007,45.4464 12.3007,17.4494 13.8203,20.5154 13.8203,27.8791 v 8.2733 l -35.1524,35.1524 -35.1518,35.1525 h -8.1534 c -7.2168,0 -10.5151,-1.6726 -28.7219,-14.4185 -22.8538,-15.9995 -32.5785,-19.5245 -49.1465,-17.8147 -20.7305,2.1398 -40.9296,17.4921 -46.824,35.588 -1.5257,4.6842 -4.1183,17.1317 -5.7627,27.662 -5.5105,35.2999 -4.3224,34.6576 -64.0494,34.6025 -38.0262,0 -46.1769,-0.51 -51.2401,-3.0082 z m 77.9256,-181.2203 c 48.9224,-7.9377 94.6162,-41.4382 116.8573,-85.6744 12.7563,-25.3713 15.4578,-37.304 15.4578,-68.294 0,-23.5429 -0.5927,-29.2553 -4.2597,-41.0268 -14.0567,-45.1355 -49.5964,-84.181 -93.1104,-102.2962 -49.7371,-20.7057 -110.3042,-15.171 -154.488,14.1174 -47.6434,31.5812 -74.0353,82.1218 -71.2291,136.4045 1.286,24.8799 4.441,36.905 15.8113,60.266 20.7429,42.6174 62.166,74.7369 109.4379,84.8592 17.6149,3.7724 47.7482,4.5284 65.5229,1.6443 z m -50.0244,-71.6742 c -9.0259,-5.3134 -42.339,-24.5871 -74.0298,-42.8297 -57.8856,-33.3213 -61.8125,-36.2268 -61.8125,-45.7303 0,-1.8476 1.4356,-5.0288 3.1908,-7.07 4.423,-5.1439 148.7481,-86.039 153.5019,-86.039 2.1191,0 14.2951,6.1169 27.0576,13.5936 12.7625,7.4759 46.1789,26.6365 74.2592,42.5781 53.81,30.5495 55.8106,32.1697 53.0898,43.0088 -0.7222,2.8793 -3.2562,5.7503 -6.1879,7.0094 -7.7268,3.3203 -138.6381,81.4085 -139.8999,83.4505 -2.6512,4.29 -13.2725,1.3873 -29.1692,-7.9714 z m -23.9489,-45.3706 c -0.7539,-1.2536 -5.3809,-7.8178 -10.2822,-14.5874 l -8.9108,-12.3076 h -14.7451 c -8.1093,0 -14.3579,0.3859 -13.8852,0.8594 1.0296,1.0296 47.8219,28.2464 48.6317,28.2864 0.3101,0 -0.069,-0.9972 -0.8084,-2.2508 z m 29.7067,-26.3037 c -0.4341,-0.4342 -5.4712,-0.5375 -11.198,-0.2343 l -10.4125,0.5513 10.6612,14.5867 10.662,14.5873 0.5375,-14.3544 c 0.2963,-7.8949 0.1861,-14.7079 -0.2481,-15.14 z m 40.6271,13.9954 11.285,-14.5867 h -11.9686 -11.9686 v 14.5867 c 0,8.0231 0.3102,14.5873 0.6823,14.5873 0.379,0 5.762,-6.5642 11.9686,-14.5873 z m 43.902,-1.8284 c 10.5145,-6.201 19.4583,-11.6081 19.8766,-12.0161 0.4204,-0.4066 -5.3258,-0.7188 -12.7638,-0.6891 l -13.5233,0.069 -8.2058,11.1836 c -4.5126,6.1514 -8.9018,12.3538 -9.7529,13.7831 -1.8793,3.1557 -1.756,3.0929 24.3692,-12.3145 z m -121.7159,-54.1359 c 4.698,-7.7151 8.2671,-14.3013 7.9315,-14.6376 -0.5031,-0.5031 -47.7647,25.8523 -50.1981,27.9948 -0.4204,0.3653 6.9991,0.6685 16.4825,0.6685 h 17.242 z m 37.8112,-2.7897 c 0,-14.7693 -0.3032,-16.3785 -2.4968,-13.2194 -4.2355,6.1018 -17.561,28.2258 -17.561,29.1561 0,0.4825 4.5132,0.8794 10.0292,0.8794 h 10.0286 z m 51.0547,15.6108 c 0,-1.0786 -18.2447,-26.3085 -22.1377,-30.613 -0.8849,-0.9786 -1.5665,5.5642 -1.5665,15.0429 v 16.7754 h 11.8521 c 6.5188,0 11.8521,-0.5444 11.8521,-1.2053 z m 45.5849,-5.7772 c -26.3209,-15.3634 -37.018,-20.9028 -35.5742,-18.4205 0.8353,1.4356 5.2369,7.7393 9.7812,14.0071 l 8.2623,11.3959 h 14.6914 14.6914 z"
       id="path1030" /></g></svg>
