<?xml version="1.0" encoding="UTF-8" standalone="no"?>
<svg
   viewBox="0 0 500 500"
   version="1.1"
   id="svg139"
   sodipodi:docname="Course_Loading.svg"
   inkscape:version="1.3.2 (091e20e, 2023-11-25, custom)"
   xmlns:inkscape="http://www.inkscape.org/namespaces/inkscape"
   xmlns:sodipodi="http://sodipodi.sourceforge.net/DTD/sodipodi-0.dtd"
   xmlns="http://www.w3.org/2000/svg"
   xmlns:svg="http://www.w3.org/2000/svg">
  <defs
     id="defs139" />
  <sodipodi:namedview
     id="namedview139"
     pagecolor="#505050"
     bordercolor="#eeeeee"
     borderopacity="1"
     inkscape:showpageshadow="0"
     inkscape:pageopacity="0"
     inkscape:pagecheckerboard="0"
     inkscape:deskcolor="#505050"
     inkscape:zoom="0.71700628"
     inkscape:cx="336.81714"
     inkscape:cy="229.42616"
     inkscape:window-width="1366"
     inkscape:window-height="745"
     inkscape:window-x="-8"
     inkscape:window-y="-8"
     inkscape:window-maximized="1"
     inkscape:current-layer="svg139" />
  <g
     id="g140"
     transform="matrix(1.0804201,0,0,1.0804201,-20.105033,-21.72371)"
     style="stroke-width:0.925566">
    <g
       id="freepik--background-complete--inject-140"
       transform="translate(0,-12)"
       style="stroke-width:0.925566">
      <path
         d="m 419.14,230.15 8,-12.88 -3.94,-2.44 a 3.62,3.62 0 0 1 -1.68,-3.39 21.43,21.43 0 0 0 0.08,-2.27 3.59,3.59 0 0 1 1.88,-3.27 l 4.09,-2.19 -7.17,-13.37 -4.09,2.2 a 3.61,3.61 0 0 1 -3.77,-0.25 21.12,21.12 0 0 0 -1.92,-1.19 3.59,3.59 0 0 1 -1.9,-3.27 l 0.15,-4.64 -15.16,-0.47 -0.14,4.66 a 3.59,3.59 0 0 1 -2.11,3.13 c -0.34,0.16 -0.67,0.33 -1,0.51 -0.33,0.18 -0.65,0.36 -1,0.55 a 3.61,3.61 0 0 1 -3.76,0 l -4,-2.47 -8,12.89 3.95,2.45 a 3.59,3.59 0 0 1 1.67,3.39 21.34,21.34 0 0 0 -0.08,2.26 3.61,3.61 0 0 1 -1.88,3.27 l -4.09,2.19 7.17,13.36 4.09,-2.19 a 3.62,3.62 0 0 1 3.76,0.24 21.12,21.12 0 0 0 1.92,1.19 3.6,3.6 0 0 1 1.91,3.27 l -0.12,4.68 15.15,0.47 0.15,-4.65 a 3.59,3.59 0 0 1 2.11,-3.13 c 0.33,-0.16 0.67,-0.33 1,-0.51 0.33,-0.18 0.65,-0.36 1,-0.55 a 3.6,3.6 0 0 1 3.78,0 z m -12.83,-9.56 a 12.42,12.42 0 1 1 5.09,-16.81 12.41,12.41 0 0 1 -5.09,16.81 z"
         style="fill:#ebebeb;stroke-width:0.925566"
         id="path1" />
      <path
         d="m 159.39,416.67 10.71,-17.54 0.05,0.2 -5.65,-3.46 a 5,5 0 0 1 -1.93,-2.76 12.49,12.49 0 0 1 -0.15,-3.35 v -1.64 a 5.17,5.17 0 0 1 2.38,-4.39 l 5.83,-3.15 -0.11,0.37 -9.76,-18.09 0.44,0.13 -5.84,3.14 a 5.27,5.27 0 0 1 -5.07,-0.43 l -1.39,-0.86 -1.4,-0.86 a 5.25,5.25 0 0 1 -2.66,-4.35 l 0.18,-6.63 0.38,0.4 -20.54,-0.59 0.45,-0.42 -0.2,6.63 a 5.35,5.35 0 0 1 -3,4.26 l -1.46,0.75 -1.43,0.81 a 5.32,5.32 0 0 1 -5.2,0.12 l -5.66,-3.47 0.69,-0.16 -10.8,17.44 -0.14,-0.63 5.62,3.53 a 5.32,5.32 0 0 1 2.19,4.67 l -0.06,1.64 -0.06,1.64 a 5.33,5.33 0 0 1 -2.47,4.51 l -5.85,3.13 0.16,-0.53 9.67,18.14 -0.46,-0.14 5.85,-3.11 a 5.19,5.19 0 0 1 3.45,-0.27 12.55,12.55 0 0 1 3,1.58 l 1.4,0.87 a 5.19,5.19 0 0 1 2.6,4.31 l -0.21,6.62 -0.27,-0.28 20.54,0.73 -0.19,0.18 0.26,-6.61 c 0.16,-2.42 2.27,-3.87 4.29,-4.7 1.81,-1.19 4.19,-2.1 6.25,-0.89 l 5.59,3.51 z m 0,0 -5.64,-3.43 c -2.07,-1.17 -4.3,-0.24 -6.11,1 -2,0.86 -4,2.22 -4.1,4.56 l -0.17,6.59 v 0.18 h -0.18 L 122.64,425 h -0.28 v -0.27 l 0.18,-6.59 a 4.65,4.65 0 0 0 -2.32,-3.81 l -1.42,-0.86 -1.42,-0.87 a 4.59,4.59 0 0 0 -4.42,-0.38 l -5.8,3.12 -0.3,0.16 -0.16,-0.3 -9.7,-18.1 -0.18,-0.34 0.34,-0.19 5.79,-3.13 a 4.49,4.49 0 0 0 2.07,-3.82 v -1.67 -1.66 a 4.44,4.44 0 0 0 -1.84,-3.91 l -5.6,-3.47 -0.38,-0.24 0.24,-0.38 10.79,-17.49 0.26,-0.42 0.42,0.26 5.6,3.47 a 4.41,4.41 0 0 0 4.28,-0.09 l 1.45,-0.82 1.48,-0.74 a 4.45,4.45 0 0 0 2.48,-3.52 l 0.22,-6.58 v -0.44 h 0.43 l 20.54,0.68 h 0.39 v 0.4 l -0.22,6.58 a 4.56,4.56 0 0 0 2.28,3.76 l 1.41,0.87 1.41,0.89 a 4.59,4.59 0 0 0 4.39,0.39 l 5.82,-3.09 0.29,-0.15 0.15,0.28 9.69,18.16 0.13,0.24 -0.24,0.13 -5.81,3.11 a 4.69,4.69 0 0 0 -2.17,3.95 c 0,0.82 -0.08,2.49 -0.13,3.31 a 4.73,4.73 0 0 0 1.9,4.14 l 5.58,3.52 0.12,0.07 -0.07,0.12 -11,17.39 z"
         style="fill:#ebebeb;stroke-width:0.925566"
         id="path2" />
      <path
         d="m 142,403.7 c -13.26,7.14 -28.65,-5.33 -24.47,-19.83 a 17.2,17.2 0 0 1 21.52,-11.52 c 14.4,4.54 16.23,24.26 2.95,31.35 z m 0,0 c 13,-7.11 11,-26.35 -3.2,-30.53 a 16.63,16.63 0 0 0 -20.45,10.95 C 114,398.26 128.87,410.63 142,403.7 Z"
         style="fill:#ebebeb;stroke-width:0.925566"
         id="path3" />
      <path
         d="m 78.67,350.65 9.2,-5.31 -1.62,-2.82 a 2.49,2.49 0 0 1 0.09,-2.64 c 0.28,-0.45 0.55,-0.91 0.79,-1.38 a 2.52,2.52 0 0 1 2.24,-1.4 h 3.25 v -10.62 h -3.25 a 2.52,2.52 0 0 1 -2.24,-1.4 c -0.24,-0.47 -0.51,-0.93 -0.79,-1.37 a 2.51,2.51 0 0 1 -0.09,-2.65 l 1.62,-2.81 -9.2,-5.31 -1.62,2.83 A 2.53,2.53 0 0 1 74.7,317 h -0.78 -0.78 a 2.51,2.51 0 0 1 -2.33,-1.22 l -1.64,-2.84 -9.17,5.31 1.63,2.82 a 2.51,2.51 0 0 1 -0.1,2.65 c -0.28,0.44 -0.55,0.9 -0.79,1.37 a 2.51,2.51 0 0 1 -2.24,1.39 h -3.28 v 10.62 h 3.25 a 2.52,2.52 0 0 1 2.24,1.4 c 0.24,0.47 0.51,0.93 0.79,1.37 a 2.51,2.51 0 0 1 0.1,2.65 l -1.6,2.82 9.2,5.31 1.63,-2.83 a 2.52,2.52 0 0 1 2.33,-1.23 h 0.79 0.78 a 2.54,2.54 0 0 1 2.35,1.24 z m -4.75,-10.16 a 8.7,8.7 0 1 1 8.7,-8.69 8.69,8.69 0 0 1 -8.7,8.69 z"
         style="fill:#ebebeb;stroke-width:0.925566"
         id="path4" />
      <path
         d="m 182.07,118.92 -5.31,-9.2 -2.76,1.63 a 2.55,2.55 0 0 1 -2.65,-0.09 13.41,13.41 0 0 0 -1.38,-0.8 2.51,2.51 0 0 1 -1.39,-2.24 V 105 H 157.9 v 3.25 a 2.51,2.51 0 0 1 -1.39,2.24 14.56,14.56 0 0 0 -1.38,0.8 2.53,2.53 0 0 1 -2.64,0.09 l -2.82,-1.63 -5.31,9.2 2.83,1.63 a 2.51,2.51 0 0 1 1.24,2.34 c 0,0.26 0,0.52 0,0.78 0,0.26 0,0.52 0,0.78 a 2.54,2.54 0 0 1 -1.23,2.34 l -2.84,1.63 5.31,9.2 2.82,-1.63 a 2.53,2.53 0 0 1 2.65,0.1 14.31,14.31 0 0 0 1.37,0.79 2.51,2.51 0 0 1 1.39,2.24 v 3.26 h 10.63 v -3.26 a 2.51,2.51 0 0 1 1.39,-2.24 14.31,14.31 0 0 0 1.37,-0.79 2.53,2.53 0 0 1 2.65,-0.1 l 2.82,1.63 5.31,-9.2 -2.82,-1.63 a 2.52,2.52 0 0 1 -1.24,-2.33 c 0,-0.26 0,-0.52 0,-0.79 0,-0.27 0,-0.52 0,-0.78 a 2.51,2.51 0 0 1 1.24,-2.34 z m -10.15,4.75 a 8.7,8.7 0 1 1 -8.7,-8.7 8.7,8.7 0 0 1 8.7,8.7 z"
         style="fill:#ebebeb;stroke-width:0.925566"
         id="path5" />
      <path
         d="m 450.63,311.54 -5.44,-9.12 0.21,0.05 -2.95,1.75 a 2.75,2.75 0 0 1 -2.65,-0.12 l -1.48,-0.83 a 2.77,2.77 0 0 1 -1.49,-2.25 v -3.43 l 0.29,0.29 -10.62,0.08 0.37,-0.37 v 3.44 a 5.06,5.06 0 0 1 -5.86,3.4 l -3,-1.71 0.6,-0.16 -5.28,9.21 -0.17,-0.63 3,1.71 a 5.2,5.2 0 0 1 0,6.89 l -3,1.74 0.19,-0.69 5.28,9.22 -0.65,-0.18 3,-1.71 a 3,3 0 0 1 2,-0.22 11.6,11.6 0 0 1 2.37,1.23 3,3 0 0 1 1.58,2.42 V 335 l -0.43,-0.44 h 10.62 l -0.4,0.4 v -3.44 a 2.87,2.87 0 0 1 0.78,-1.76 12.23,12.23 0 0 1 2.23,-1.42 2.85,2.85 0 0 1 2.77,-0.12 l 3,1.73 -0.4,0.11 5.4,-9.15 0.07,0.26 -2.94,-1.75 a 3.14,3.14 0 0 1 -1.11,-3.17 3.09,3.09 0 0 1 1.16,-3.09 l 3,-1.66 z m 0,0 -2.92,1.76 a 2.94,2.94 0 0 0 -1,3 2.9,2.9 0 0 0 1.06,2.92 l 3,1.67 0.17,0.09 -0.1,0.17 -5.21,9.25 -0.15,0.25 -0.25,-0.14 -3,-1.67 a 2.21,2.21 0 0 0 -2.13,0.13 c -1.06,0.67 -2.58,1.17 -2.63,2.65 v 3.39 0.39 h -0.4 l -10.62,0.05 H 426 c 0,-0.2 0,-3.53 0,-3.83 0,-1.1 -1,-1.67 -1.86,-2.11 -0.86,-0.44 -1.8,-1.06 -2.75,-0.54 l -3.34,1.93 -0.24,-0.41 -5.33,-9.19 -0.25,-0.43 3.37,-1.94 c 0.91,-0.54 0.95,-1.68 0.88,-2.63 v -0.86 a 2.06,2.06 0 0 0 -0.89,-1.79 l -2.93,-1.7 -0.4,-0.23 0.23,-0.4 5.33,-9.19 0.22,-0.38 0.38,0.22 2.93,1.7 c 1,0.52 2,0 2.79,-0.54 a 6.51,6.51 0 0 0 1.32,-0.86 2.09,2.09 0 0 0 0.57,-1.28 v -3.39 -0.38 h 0.37 l 10.62,0.08 h 0.29 v 0.29 3.39 a 2.3,2.3 0 0 0 1.19,1.86 c 0.37,0.22 1.12,0.65 1.48,0.88 a 2.32,2.32 0 0 0 2.25,0.15 l 3,-1.66 0.13,-0.07 0.07,0.13 5.18,9.27 z"
         style="fill:#ebebeb;stroke-width:0.925566"
         id="path6" />
      <path
         d="m 440.48,316.29 c 0.07,7.78 -9.56,11.91 -15.16,6.45 a 9,9 0 0 1 0,-12.91 c 5.61,-5.46 15.23,-1.31 15.16,6.46 z m 0,0 c 0,-7.55 -9.41,-11.32 -14.55,-5.85 a 8.48,8.48 0 0 0 0,11.69 c 5.12,5.48 14.6,1.71 14.55,-5.84 z"
         style="fill:#ebebeb;stroke-width:0.925566"
         id="path7" />
      <path
         d="m 96.38,252.11 -13.83,10.5 -0.22,-0.19 a 73.25,73.25 0 0 0 -6.62,-5.2 c -1.13,-0.68 -2.83,-0.81 -5,-1 -4.92,-0.39 -12.35,-1 -20.24,-9.19 -4.55,-4.74 -7.14,-12.45 -6.58,-19.65 a 24.65,24.65 0 0 1 28.88,-22 c 7.09,1.39 13.84,6 17.19,11.61 v 0 c 5.79,9.81 4.37,17.13 3.43,22 -0.41,2.12 -0.73,3.8 -0.38,5.07 a 74.63,74.63 0 0 0 3.23,7.77 z m -13.79,9.55 12.87,-9.78 a 67.83,67.83 0 0 1 -3.15,-7.62 c -0.4,-1.43 -0.06,-3.18 0.37,-5.4 1,-5 2.3,-11.89 -3.34,-21.45 -3.25,-5.5 -9.81,-9.92 -16.7,-11.27 a 23.93,23.93 0 0 0 -28,21.3 c -0.54,7 2,14.5 6.38,19.09 7.7,8 14.67,8.56 19.77,9 2.25,0.18 4,0.32 5.31,1.09 a 68.73,68.73 0 0 1 6.49,5.04 z"
         style="fill:#ebebeb;stroke-width:0.925566"
         id="path8" />
      <rect
         x="75.589996"
         y="236.75"
         width="1.1"
         height="27.129999"
         transform="rotate(-47.8,76.130489,250.31172)"
         style="fill:#ebebeb;stroke-width:0.925566"
         id="rect8" />
      <rect
         x="86.110001"
         y="228.75"
         width="1.1"
         height="27.129999"
         transform="rotate(-26.66,86.665269,242.33339)"
         style="fill:#ebebeb;stroke-width:0.925566"
         id="rect9" />
      <path
         d="m 78.74,242.81 v 0 c -1.26,0.95 -3.19,0.66 -5,-0.16 A 2,2 0 0 1 73,244.1 v 0 c -2,1.55 -6,-2 -6.18,-2.15 l 0.37,-0.41 c 1,0.95 4.08,3.18 5.48,2.12 v 0 a 1.68,1.68 0 0 0 0.48,-1.28 11.86,11.86 0 0 1 -3.84,-3 c -0.9,-1.19 -1,-2.21 -0.18,-2.81 v 0 a 1.58,1.58 0 0 1 1.64,-0.22 c 1.46,0.61 2.64,3.12 2.89,5.1 0,0.21 0,0.41 0,0.61 1.76,0.82 3.58,1.12 4.66,0.3 v 0 c 1,-0.75 1.17,-2.29 0.88,-4 a 7,7 0 0 1 -3.94,-2.66 c -1.15,-1.51 -1.29,-2.89 -0.36,-3.59 v 0 c 0.75,-0.58 1.75,-0.17 2.73,1.12 a 12.5,12.5 0 0 1 2,4.66 2.32,2.32 0 0 0 1.67,-0.47 v 0 c 1.2,-0.9 0.06,-4.6 -0.47,-6 l 0.51,-0.2 c 0.21,0.54 2,5.28 0.3,6.6 v 0 a 2.81,2.81 0 0 1 -1.91,0.56 c 0.39,1.87 0.17,3.54 -0.99,4.43 z M 75.31,232.6 c -0.79,0.6 -0.24,1.9 0.47,2.83 a 6.89,6.89 0 0 0 3.39,2.42 11.42,11.42 0 0 0 -1.9,-4.22 c -0.36,-0.48 -1.28,-1.54 -2,-1 z m -5.8,4.4 c -0.67,0.5 -0.22,1.38 0.28,2 a 10.92,10.92 0 0 0 3.39,2.74 v -0.27 c -0.23,-1.79 -1.33,-4.14 -2.55,-4.65 a 1,1 0 0 0 -1.09,0.14 z"
         style="fill:#ebebeb;stroke-width:0.925566"
         id="path9" />
      <path
         d="m 100,253.52 -17,12.96 -2.89,-3.8 17.06,-13 z M 83.1,265.45 99,253.38 97,250.75 81.09,262.82 Z"
         style="fill:#ebebeb;stroke-width:0.925566"
         id="path10" />
      <path
         d="m 102.85,257.26 -17,13 -2.9,-3.8 17.06,-13 z m -16.91,11.93 15.88,-12.07 -2,-2.63 -15.88,12.07 z"
         style="fill:#ebebeb;stroke-width:0.925566"
         id="path11" />
      <path
         d="m 105.69,261 -17,13 -2.89,-3.8 17,-13 z m -16.91,11.93 15.88,-12.07 -2,-2.63 -15.88,12.07 z"
         style="fill:#ebebeb;stroke-width:0.925566"
         id="path12" />
      <path
         d="m 450.66,249.5 -8.53,-12.25 0.19,-0.17 c 0.16,-0.14 3.76,-3.27 7.62,-2.81 a 6.78,6.78 0 0 1 4.77,3.13 7,7 0 0 1 1.29,5.6 c -0.86,3.84 -5,6.24 -5.13,6.34 z m -7.76,-12.16 7.92,11.39 c 0.87,-0.55 3.95,-2.73 4.64,-5.83 a 6.44,6.44 0 0 0 -1.22,-5.17 6.22,6.22 0 0 0 -4.37,-2.89 c -3.11,-0.37 -6.17,1.87 -6.97,2.5 z"
         style="fill:#ebebeb;stroke-width:0.925566"
         id="path13" />
      <polygon
         points="442.76,237.47 387.63,277.08 387.29,276.61 442.89,236.66 451.45,248.97 451.22,249.13 395.86,288.91 395.52,288.44 450.66,248.83 "
         style="fill:#ebebeb;stroke-width:0.925566"
         id="polygon13" />
      <path
         d="m 449.77,251.66 -9.93,-14.28 2.66,-1.92 9.94,14.29 z m -9.14,-14.15 9.28,13.35 1.73,-1.25 -9.28,-13.34 z"
         style="fill:#ebebeb;stroke-width:0.925566"
         id="path14" />
      <path
         d="m 447.34,253.41 -9.94,-14.29 2.67,-1.91 9.93,14.28 z m -9.14,-14.15 9.28,13.34 1.73,-1.24 -9.28,-13.36 z"
         style="fill:#ebebeb;stroke-width:0.925566"
         id="path15" />
      <path
         d="m 382.22,289.46 5.08,-12.68 0.23,0.07 2.1,0.19 h 0.34 l -0.55,2.09 2.14,0.2 -0.54,2.09 2.13,0.2 -0.54,2.09 2.12,0.17 -0.53,2.12 1.78,0.14 h 0.33 l -0.65,2.64 z m 5.44,-12 -4.57,11.4 2.73,-0.11 9.38,-0.43 0.39,-1.58 -1.78,-0.15 h -0.34 l 0.53,-2.11 -2.12,-0.17 0.55,-2.1 -2.14,-0.2 0.54,-2.09 -2.13,-0.2 0.54,-2.08 z"
         style="fill:#ebebeb;stroke-width:0.925566"
         id="path16" />
      <path
         d="m 382.52,289.14 2.06,-5.09 3.38,4.86 z m 2.19,-3.89 -1.32,3.28 3.5,-0.15 z"
         style="fill:#ebebeb;stroke-width:0.925566"
         id="path17" />
      <path
         d="m 393.13,277.66 c 3.63,-3 7.35,-5.86 11.09,-8.7 3.74,-2.84 7.56,-5.57 11.33,-8.36 3.77,-2.79 7.66,-5.44 11.54,-8.08 3.88,-2.64 7.79,-5.25 11.79,-7.73 -3.63,3 -7.35,5.86 -11.09,8.7 -3.74,2.84 -7.56,5.57 -11.34,8.36 -3.78,2.79 -7.65,5.44 -11.54,8.07 -3.89,2.63 -7.78,5.26 -11.78,7.74 z"
         style="fill:#ebebeb;stroke-width:0.925566"
         id="path18" />
      <path
         d="m 396.9,282.92 c 3.63,-3 7.35,-5.85 11.09,-8.69 3.74,-2.84 7.56,-5.58 11.33,-8.37 3.77,-2.79 7.66,-5.43 11.54,-8.07 3.88,-2.64 7.79,-5.26 11.79,-7.74 -3.63,3 -7.35,5.87 -11.09,8.71 -3.74,2.84 -7.56,5.57 -11.33,8.36 -3.77,2.79 -7.66,5.43 -11.55,8.07 -3.89,2.64 -7.78,5.25 -11.78,7.73 z"
         style="fill:#ebebeb;stroke-width:0.925566"
         id="path19" />
    </g>
    <g
       id="freepik--Table--inject-140"
       transform="translate(0,-12)"
       style="stroke-width:0.925566">
      <path
         d="m 36.71,453.51 c 136.65,-0.61 289.93,-0.61 426.58,0 -136.65,0.62 -289.93,0.62 -426.58,0 z"
         style="fill:#263238;stroke-width:0.925566"
         id="path42" />
    </g>
    <g
       id="freepik--Character--inject-140"
       transform="translate(0,-12)"
       style="stroke-width:0.925566">
      <path
         d="m 330.53,453.51 h -83.3 c -0.15,-0.64 -0.3,-1.28 -0.44,-1.92 -14.77,-65.67 1.59,-80.08 29.11,-58.78 6.92,5.36 14.55,13 22.57,22.61 l 5.84,7 q 13.53,16.2 26.22,31.09 z"
         style="fill:#f7a9a0;stroke-width:0.925566"
         id="path43" />
      <path
         d="M 351.36,453.51 H 233.61 q -0.59,-4.67 -1.07,-9.12 c -0.51,-4.59 -0.94,-9 -1.29,-13.21 a 223.57,223.57 0 0 1 -0.82,-28.32 90.86,90.86 0 0 1 1.25,-11.94 c 0.15,-0.88 0.32,-1.72 0.51,-2.54 0.06,-0.27 0.13,-0.54 0.19,-0.81 0.2,-0.79 0.4,-1.56 0.62,-2.29 0.07,-0.24 0.15,-0.48 0.22,-0.73 0.16,-0.47 0.32,-0.94 0.48,-1.39 a 21.83,21.83 0 0 1 4.72,-8 13.34,13.34 0 0 1 1.19,-1.08 l 0.43,-0.33 a 9.91,9.91 0 0 1 0.85,-0.59 13.11,13.11 0 0 1 2.81,-1.32 15.42,15.42 0 0 1 5.57,-0.73 H 250 c 6.67,0.47 15.11,4.23 25.4,11.05 q 7,4.68 15.26,11.24 c 18.93,15.13 40.7,37.74 60.7,60.11 z"
         style="fill:#407bff;stroke-width:0.925566"
         id="path44" />
      <path
         d="m 231.86,389.94 q 0.09,-0.49 0.21,-1 c 0.41,0.1 0.83,0.19 1.25,0.26 3,0.52 7.43,-0.28 8.07,-3.88 0.55,-3.18 -2.43,-6.19 -4.9,-7.79 0.19,-0.29 0.39,-0.56 0.6,-0.83 3.71,2.5 7.63,7.52 4,11.44 -2.59,2.73 -5.89,2.6 -9.23,1.8 z m 18.79,30.34 c -5.5,0.16 -10.13,4.55 -12.29,9.35 -2.84,6.34 -2.21,13.56 -2.42,20.33 0,1.18 -0.09,2.36 -0.19,3.55 h 1 c 0.42,-6.36 -0.23,-12.85 1.14,-19.1 1.31,-6 5.63,-12.62 12.37,-13.07 6.17,-0.41 10.51,5.27 11.46,10.84 1.25,7.41 -2.7,14.6 -5.79,21 -0.05,0.1 -0.1,0.2 -0.14,0.3 h 1.12 c 0.91,-1.88 1.85,-3.73 2.68,-5.59 2.59,-5.8 4.67,-12.53 2.39,-18.78 -1.73,-4.78 -5.91,-8.98 -11.33,-8.83 z m 26.07,4.4 a 33.91,33.91 0 0 0 -12.23,-12.15 c -5.14,-2.95 -10.94,-4.1 -16.78,-4.62 -5.84,-0.52 -11.65,-0.44 -17.41,-1.18 0,0.34 0,0.69 0,1 2.67,0.34 5.37,0.49 8,0.63 6.15,0.31 12.41,0.42 18.4,2 a 31.68,31.68 0 0 1 15.37,9.63 c 8,9 10.32,21.94 7.2,33.44 h 1.09 a 38.06,38.06 0 0 0 -3.64,-28.75 z m -5.93,-40.82 c -2.19,2 -4.86,3.75 -7.92,3.83 a 9.86,9.86 0 0 1 -7.76,-3.92 c -3,-3.61 -3.94,-8.14 -5,-12.61 h -0.11 -0.73 -0.21 c 1.34,5.63 2.6,11.7 7.42,15.44 4.38,3.38 9.67,2.39 13.77,-0.87 a 31.22,31.22 0 0 0 4.17,-4.12 c -0.29,-0.2 -0.58,-0.38 -0.87,-0.56 a 35.46,35.46 0 0 1 -2.76,2.81 z m 35,22.58 c -3.44,2.31 -6.53,5.27 -10.54,6.51 -3.06,0.95 -6.7,0.85 -9,-1.67 -1.94,-2.14 -2.24,-5.29 -1.76,-8 0.71,-4 3.15,-7.16 5.73,-10.19 l -0.74,-0.59 c -3.82,4.61 -7.45,9.27 -5.93,15.71 a 8.07,8.07 0 0 0 4.12,5.45 10.76,10.76 0 0 0 8.23,0.19 c 4,-1.37 7.13,-4.42 10.65,-6.68 z m 15.47,37.47 c -4.39,3.65 -9.54,6.92 -15.47,6.65 -2.5,-0.11 -5.13,-1 -6.66,-3.06 -2,-2.73 -1.47,-6.45 0.11,-9.23 2.76,-4.88 8.45,-7.35 13.32,-9.55 a 37.64,37.64 0 0 0 10,-6 c -0.25,-0.26 -0.5,-0.52 -0.76,-0.77 a 22.13,22.13 0 0 1 -2.25,1.84 c -4.66,3.35 -10.3,4.9 -15.12,8 -4.27,2.74 -8.2,7.14 -7.58,12.59 0.57,5 5.23,7.37 9.87,7.29 5.58,-0.1 10.38,-3 14.61,-6.44 4.23,-3.44 7.91,-7.5 11.95,-11.4 l -0.69,-0.73 c -3.85,3.64 -7.48,7.58 -11.37,10.81 z m 27.46,6.61 c -4.82,0.65 -9.72,1.1 -14.17,2.61 l -1.05,0.38 h 3.34 a 65.77,65.77 0 0 1 8.32,-1.49 c 1.47,-0.19 2.93,-0.37 4.39,-0.58 -0.32,-0.3 -0.55,-0.61 -0.87,-0.92 z"
         style="opacity:0.5;fill:#ffffff;stroke-width:0.925566"
         id="path45" />
      <path
         d="m 338.61,453.51 h -105 q -0.59,-4.67 -1.08,-9.12 -0.75,-6.9 -1.28,-13.22 a 225.57,225.57 0 0 1 -0.83,-28.31 94.21,94.21 0 0 1 1.25,-11.94 c 0.16,-0.88 0.33,-1.72 0.51,-2.54 0.06,-0.27 0.13,-0.54 0.19,-0.81 0.2,-0.79 0.4,-1.56 0.62,-2.29 0.07,-0.24 0.15,-0.48 0.22,-0.73 0.16,-0.47 0.32,-0.94 0.48,-1.39 a 21.83,21.83 0 0 1 4.72,-8 13.34,13.34 0 0 1 1.19,-1.08 l 0.43,-0.33 c 0.28,-0.21 0.56,-0.4 0.85,-0.59 a 13.11,13.11 0 0 1 2.81,-1.32 15.84,15.84 0 0 1 5.57,-0.73 h 0.73 a 35.55,35.55 0 0 1 11.73,3.35 z"
         style="opacity:0.1;stroke-width:0.925566"
         id="path46" />
      <path
         d="M 324.07,453.51 H 123.73 c 18.74,-31.52 41.09,-59.31 67.66,-79.26 16.87,-12.68 56.94,-16.85 84,7.95 l 0.59,0.55 c 2.45,2.3 14.13,18.21 28.32,39.67 6.3,9.51 13.08,20.11 19.77,31.09 z"
         style="fill:#407bff;stroke-width:0.925566"
         id="path47" />
      <path
         d="m 169.18,448.25 a 36.16,36.16 0 0 1 9,5.26 h -1.79 c -5,-3.62 -12.06,-7.64 -17.86,-4.16 a 9,9 0 0 0 -3.69,4.16 h -1.05 a 9.32,9.32 0 0 1 0.59,-1.24 c 3.03,-5.49 9.37,-6.09 14.8,-4.02 z M 141.8,426 l -0.9,1.24 c 0.8,4.49 2.33,8.88 3.25,13.32 a 25.17,25.17 0 0 1 -0.31,13 h 1 a 22.44,22.44 0 0 0 1,-5.41 c 0.38,-6.55 -2.12,-12.77 -3.51,-19.07 Q 142,427.5 141.8,426 Z m 36.32,-40.81 -1.33,1.19 a 27.73,27.73 0 0 0 -0.06,11.19 c 1.33,7.19 4.59,13.83 6.12,21 1.33,6.19 1.17,13.4 -3,18.56 -3.41,4.26 -10,6.14 -14.82,3.08 -6,-3.83 -3.93,-12.18 -1.16,-17.35 2.77,-5.17 7.33,-10.79 7,-17.17 a 8.13,8.13 0 0 0 -6,-7.56 l -0.76,0.81 a 8.7,8.7 0 0 1 1.93,0.69 c 3.19,1.6 4.19,5.08 3.69,8.45 -1,6.58 -6,11.59 -8.28,17.66 -1.85,4.89 -2.19,11.27 2.34,14.82 3.83,3 9.61,2.71 13.62,0.21 4.77,-3 6.9,-8.81 7.21,-14.19 0.8,-14.16 -10.97,-27.32 -6.5,-41.42 z m 11,57 a 44.52,44.52 0 0 1 7.6,-6 17.57,17.57 0 0 1 10,-2.31 c 3.17,0.15 6.36,0.71 9.52,0.21 A 10.26,10.26 0 0 0 225,423 10.13,10.13 0 0 0 214.8,414.26 c -2.75,0.07 -5.3,1.42 -7.68,2.65 -2.38,1.23 -5.14,2.86 -7.94,2.37 -6.16,-1.07 -5.12,-9.11 -3.92,-13.47 1.94,-7 4.38,-13.93 4.43,-21.33 0,-4.25 -1,-10 -5.15,-12.27 -0.36,0.21 -0.7,0.42 -1,0.64 2.12,0.91 3.48,3.14 4.23,5.25 a 22.84,22.84 0 0 1 0.75,9.73 63.16,63.16 0 0 1 -2.37,11.17 87.6,87.6 0 0 0 -2.58,9.43 c -0.71,4.24 -0.44,9.88 4.35,11.56 5.22,1.83 10.14,-3.24 14.9,-4.44 6,-1.53 12.16,3.75 11,10 a 9.11,9.11 0 0 1 -5.45,6.86 c -3.14,1.24 -6.63,0.74 -9.9,0.49 a 20.65,20.65 0 0 0 -9.62,1.05 27.73,27.73 0 0 0 -7.38,4.73 c -3.38,2.85 -10.05,7.92 -5.95,12.8 a 7.41,7.41 0 0 0 2.9,2.06 9.52,9.52 0 0 0 3.22,0.72 8.92,8.92 0 0 0 3.85,-0.72 15.72,15.72 0 0 0 3.38,-1.93 c 2.53,-1.83 4.63,-4.18 7.16,-6 2.53,-1.82 6.07,-3.52 9.33,-2.53 4.5,1.36 5.64,6.1 5.06,10.46 h 1.11 c 0.48,-4.36 -0.85,-9.42 -5.17,-11.2 -5.86,-2.45 -11.36,2.66 -15.36,6.17 -2.28,2 -5,4.27 -8.1,4.65 -2.48,0.29 -5.47,-0.66 -6.91,-2.8 -2.13,-3.16 0.94,-6.2 3.14,-8.23 z m 61.52,-21.85 c -5.5,0.16 -10.13,4.55 -12.29,9.35 -2.84,6.34 -2.21,13.56 -2.42,20.33 0,1.18 -0.09,2.36 -0.19,3.55 h 1 c 0.42,-6.36 -0.23,-12.85 1.14,-19.1 1.31,-6 5.63,-12.62 12.37,-13.07 6.17,-0.41 10.51,5.27 11.46,10.84 1.25,7.41 -2.7,14.6 -5.79,21 -0.05,0.1 -0.1,0.2 -0.14,0.3 h 1.12 c 0.91,-1.88 1.85,-3.73 2.68,-5.59 2.59,-5.8 4.67,-12.53 2.39,-18.78 -1.72,-4.84 -5.9,-9.04 -11.32,-8.89 z m 13.84,-7.75 c -5.14,-2.95 -10.94,-4.1 -16.78,-4.62 -6.15,-0.55 -12.37,-0.43 -18.48,-1.33 -5.61,-0.83 -12.17,-2.7 -15.95,-7.23 -2.41,-2.89 -1.74,-6.66 0.86,-9.18 2.6,-2.52 6.46,-2.87 9.88,-2.34 5.3,0.82 12.41,5.25 17,0.32 4.12,-4.4 -1.33,-10.18 -5.3,-12.23 -4.78,-2.47 -10.41,-2.68 -15.67,-2.8 a 58.68,58.68 0 0 1 -8.8,-0.35 4.53,4.53 0 0 1 -3.87,-2.86 6.3,6.3 0 0 1 -0.1,-3.11 l -1.11,0.32 a 7.6,7.6 0 0 0 0.08,2.56 c 0.57,2.68 2.9,3.89 5.43,4.2 5.72,0.7 11.51,0 17.22,1 a 20.44,20.44 0 0 1 7.43,2.62 c 2.5,1.58 5.59,4.63 5,7.87 -0.64,3.6 -5.1,4.4 -8.07,3.88 -3.27,-0.57 -6.29,-2 -9.59,-2.47 -5.46,-0.71 -12.15,1.5 -13,7.74 -0.77,5.78 5.91,9.46 10.46,11.18 5.43,2.06 11.35,2.44 17.1,2.74 6.15,0.31 12.41,0.42 18.4,2 a 31.68,31.68 0 0 1 15.37,9.63 c 8,9 10.32,21.94 7.2,33.44 h 1.09 a 38.06,38.06 0 0 0 -3.65,-28.83 33.91,33.91 0 0 0 -12.14,-12.21 z m 6.3,-28.67 c -2.19,2 -4.86,3.75 -7.92,3.83 a 9.86,9.86 0 0 1 -7.76,-3.92 c -3.87,-4.65 -4.3,-10.8 -6,-16.43 l -1.21,-0.35 c 0.34,1 0.62,2.06 0.88,3.12 1.44,5.9 2.55,12.48 7.66,16.44 4.38,3.38 9.67,2.39 13.77,-0.87 a 32.51,32.51 0 0 0 4.29,-4.25 l -0.77,-0.68 a 36.42,36.42 0 0 1 -2.93,3.05 z m 26.59,28.22 a 14,14 0 0 1 -2.17,0.87 c -3.06,0.95 -6.7,0.85 -9,-1.67 -1.94,-2.14 -2.24,-5.29 -1.76,-8 a 16.12,16.12 0 0 1 2.56,-6.08 c -0.19,-0.28 -0.39,-0.55 -0.59,-0.82 -2.42,3.45 -4,7.17 -2.91,11.83 a 8.07,8.07 0 0 0 4.12,5.45 10.76,10.76 0 0 0 8.23,0.19 16.34,16.34 0 0 0 2.1,-0.89 c -0.18,-0.37 -0.37,-0.66 -0.57,-0.94 z m 21.77,33.46 c -3.92,2.94 -8.38,5.25 -13.4,5 -2.5,-0.11 -5.13,-1 -6.66,-3.06 -2,-2.73 -1.47,-6.45 0.11,-9.23 2.18,-3.86 6.19,-6.21 10.18,-8.11 l -0.54,-0.83 a 39.67,39.67 0 0 0 -4.44,2.41 c -4.27,2.74 -8.2,7.14 -7.58,12.59 0.57,5 5.23,7.37 9.87,7.29 4.89,-0.09 9.18,-2.35 13,-5.2 -0.16,-0.33 -0.34,-0.63 -0.53,-0.92 z"
         style="opacity:0.5;fill:#ffffff;stroke-width:0.925566"
         id="path48" />
      <path
         d="m 259.71,307.38 c 32,38.89 98.6,37.48 137.2,10.21 0.94,-0.65 -22.54,-21.61 -38.84,-63.09 -8.51,-21.66 -9.52,-45.53 -12.88,-68.51 -1.5,-10.33 -3,-20.65 -4.71,-30.94 -1.63,-9.82 -3.17,-20.71 -7.78,-29.78 -13.11,-25.8 -55.11,-20 -59.73,-13.34 C 241.16,158 223.3,263.11 259.71,307.38 Z"
         style="fill:#263238;stroke-width:0.925566"
         id="path49" />
      <path
         d="m 266.36,277 c 7.89,23.69 24.83,43.25 48,53.17 24.39,10.44 54.73,8.83 78.49,-2.74 0.42,-0.21 0.81,0.41 0.39,0.63 -24.54,13 -52.11,16.58 -78.42,6.17 -24.33,-9.63 -44.21,-31 -50.15,-56.72 a 0.89,0.89 0 0 1 1.69,-0.51 z"
         style="fill:#263238;stroke-width:0.925566"
         id="path50" />
      <path
         d="m 248.9,269.86 c 7.8,23.67 21.43,42.76 43.14,55.66 21.54,12.81 53.76,23.31 78.75,16.39 a 0.54,0.54 0 0 1 0.31,1 c -26.4,8 -58.93,-1.41 -81.87,-15.27 -20.34,-12.3 -38.93,-33.19 -42.22,-57.51 -0.15,-1.08 1.56,-1.27 1.89,-0.27 z"
         style="fill:#263238;stroke-width:0.925566"
         id="path51" />
      <path
         d="m 334.29,147 c 4.48,29.22 9.28,57.36 20.39,85 a 297.84,297.84 0 0 0 45.4,77.24 c 0.38,0.46 -0.25,1.14 -0.65,0.68 -19.79,-22.35 -35.73,-46.91 -47.22,-74.56 -11.35,-27.31 -20.17,-58.44 -19.77,-88.26 a 0.93,0.93 0 0 1 1.85,-0.1 z"
         style="fill:#263238;stroke-width:0.925566"
         id="path52" />
      <path
         d="m 206.67,373.67 c 1.49,6.7 32.87,50.4 63.41,49.32 9.94,-0.38 10.34,-54.75 10.34,-54.75 l 0.95,-4 13.21,-56.1 L 229,265 l -9.49,-5.72 c 0,0 -2.6,15.59 -5.64,35 -0.15,0.9 -0.3,1.8 -0.44,2.77 -0.14,0.97 -0.41,2.12 -0.54,3.15 -0.5,2.9 -1,5.86 -1.41,8.82 -0.34,2.26 -0.68,4.44 -0.94,6.82 -0.26,2.38 -0.59,4.69 -0.92,7.07 -2.72,23.54 -3.54,47.92 -2.95,50.76 z"
         style="fill:#f7a9a0;stroke-width:0.925566"
         id="path53" />
      <path
         d="m 213.87,294.31 c 15.6,44.94 51.15,63.59 67.5,69.93 L 294.58,308.14 229,265 l -9.49,-5.72 c 0,0 -2.6,15.59 -5.64,35.03 z"
         style="fill:#263238;stroke-width:0.925566"
         id="path54" />
      <path
         d="m 360.62,213 c 12.72,100.35 -45.95,119.3 -67.59,122 -19.64,2.47 -86.85,8.38 -109.87,-90.12 -23.02,-98.5 19.61,-136.13 64.24,-144.15 44.63,-8.02 100.5,11.95 113.22,112.27 z"
         style="fill:#f7a9a0;stroke-width:0.925566"
         id="path55" />
      <path
         d="m 129.12,196.41 a 136.82,136.82 0 0 1 -10.3,54 c -5.88,14.2 -13.38,28.28 -13.29,44.1 0.18,28.27 27.11,47 51.6,58.81 16.38,7.92 52.51,9.33 80.08,0.22 1.35,-0.45 -69.11,-127.46 36.6,-254.88 0.46,-0.55 -66.67,-15.85 -109.27,15.6 -27.75,20.48 -35.6,50.29 -35.42,82.15 z"
         style="fill:#263238;stroke-width:0.925566"
         id="path56" />
      <path
         d="m 127.14,182.38 c 2.93,-22.09 11.46,-41.14 26.3,-57.77 0.14,-0.15 0.4,0.08 0.27,0.24 -14.41,17.35 -22.4,38.36 -25,60.61 -2.23,18.88 -2.36,38.15 -10.75,55.62 -4.78,10 -10.65,18.93 -12.39,30.06 a 64.29,64.29 0 0 0 3.09,31.23 c 7.62,21.69 25.08,36 45.2,45.66 0.63,0.3 0.33,1.32 -0.35,1.05 -36.92,-14.32 -62.53,-56.75 -44.38,-94.94 5.72,-12 11.67,-22.68 14,-36 2.05,-11.86 2.44,-23.88 4.01,-35.76 z"
         style="fill:#263238;stroke-width:0.925566"
         id="path57" />
      <path
         d="m 152.11,130.44 c 0.14,-0.18 0.44,0 0.3,0.2 -15.62,19.56 -23.08,43.16 -22.89,68.06 0.1,11.74 1,23.49 -0.94,35.14 -1.76,10.58 -5.66,20.4 -10.52,29.91 -11.06,21.72 -24.19,47.25 -2.49,67.37 19,17.56 47.1,25.27 72.21,27.44 a 0.57078893,0.57078893 0 0 1 -0.06,1.14 c -24.84,-1.16 -52,-9.46 -71.25,-25.74 -16,-13.55 -17.28,-32.27 -9.67,-50.9 5.41,-13.24 13.67,-25.09 17.79,-38.89 4.35,-14.57 3.58,-29 3.4,-44 -0.33,-26.03 7.26,-49.75 24.12,-69.73 z"
         style="fill:#263238;stroke-width:0.925566"
         id="path58" />
      <path
         d="m 126.51,190.91 c 2.29,-22.94 7.66,-47.11 26.3,-62.27 a 0.24083189,0.24083189 0 0 1 0.32,0.36 c -22.13,19.43 -23.93,50.35 -26.34,77.74 -1.19,13.55 -2.7,27.33 -7.48,40.19 -4.78,12.86 -14.13,23.87 -17,37.46 -6,28.51 13.79,53.8 37.72,65.16 26.22,12.44 54.15,9.86 82.28,10.61 0.68,0 0.8,1.18 0.09,1.24 -39.46,3.56 -92.82,0.26 -115,-38.61 -9.22,-16.17 -10.3,-35.05 -2,-52.06 6.41,-13.1 13.42,-24.7 16.39,-39.22 2.78,-13.39 3.37,-27.05 4.72,-40.6 z"
         style="fill:#263238;stroke-width:0.925566"
         id="path59" />
      <path
         d="m 194,260.52 c 18.35,1 16.52,-57 16.52,-57 0,0 66.31,0.78 84,-64.3 0,0 31.89,39.58 58.75,37.83 9.37,-0.61 -6.93,-70.95 -61.06,-74 0,0 -62.33,-23.9 -104.36,26.81 -42.03,50.71 -19.12,129.34 6.15,130.66 z"
         style="fill:#263238;stroke-width:0.925566"
         id="path60" />
      <path
         d="m 204.07,200.86 c 20.31,4.29 41.7,5.28 59.57,-7.13 20.45,-14.2 27.08,-39 33.19,-61.67 0.1,-0.4 0.72,-0.34 0.65,0.09 -4,23.85 -12.48,50.15 -33.67,64.23 -17.28,11.48 -40.81,12.07 -60.06,5.62 -0.62,-0.25 -0.32,-1.28 0.32,-1.14 z"
         style="fill:#263238;stroke-width:0.925566"
         id="path61" />
      <path
         d="m 295,126.52 c 4.14,12.93 8.64,24.2 18.07,34.35 9.17,9.88 20.35,16.09 32.9,20.66 a 0.24,0.24 0 0 1 -0.13,0.46 c -25,-5 -49.38,-29.33 -52.17,-55.14 -0.13,-0.75 1.03,-1.09 1.33,-0.33 z"
         style="fill:#263238;stroke-width:0.925566"
         id="path62" />
      <path
         d="m 343.55,187.87 a 66.57,66.57 0 0 1 -7.06,-0.3 c -2.71,-0.15 -4.89,0 -7.15,-1.68 a 3.65,3.65 0 0 1 -0.72,-4.39 c 1.8,-2.94 5.16,-3.59 8.43,-3.55 a 13.31,13.31 0 0 1 9,3.26 c 2.62,2.21 0.69,6.5 -2.5,6.66 z"
         style="fill:#263238;stroke-width:0.925566"
         id="path63" />
      <path
         d="m 276.65,215.16 a 70.26,70.26 0 0 0 6.9,-1.56 c 2.64,-0.63 4.8,-0.85 6.73,-2.93 a 3.65,3.65 0 0 0 -0.07,-4.45 c -2.3,-2.57 -5.72,-2.61 -8.93,-2 a 13.19,13.19 0 0 0 -8.26,4.81 c -2.2,2.65 0.46,6.54 3.63,6.13 z"
         style="fill:#263238;stroke-width:0.925566"
         id="path64" />
      <path
         d="m 292,228.84 c -0.09,-0.25 -0.48,0.41 -0.43,0.69 1.33,6.85 1.7,14.92 -4.15,18.21 -0.19,0.1 -0.11,0.44 0.11,0.37 7.47,-2.29 6.86,-12.99 4.47,-19.27 z"
         style="fill:#263238;stroke-width:0.925566"
         id="path65" />
      <path
         d="m 284.73,222.64 c -11.21,1 -8.49,23.3 1.89,22.42 10.22,-0.87 7.5,-23.21 -1.89,-22.42 z"
         style="fill:#263238;stroke-width:0.925566"
         id="path66" />
      <path
         d="m 280.48,224.36 c -1.79,1.5 -3.43,4 -5.76,4.49 -2.69,0.6 -5,-1.49 -7.08,-3.53 -0.21,-0.21 -0.38,0 -0.35,0.31 0.46,4.29 2.64,8.48 7.3,8.56 4.26,0.07 6.81,-4.09 7.35,-8.52 0.06,-0.82 -0.73,-1.91 -1.46,-1.31 z"
         style="fill:#263238;stroke-width:0.925566"
         id="path67" />
      <path
         d="m 331.74,222.36 c 0,-0.27 0.57,0.28 0.58,0.57 0.34,7 1.91,14.89 8.38,16.69 0.2,0.06 0.21,0.41 0,0.39 -7.79,-0.46 -9.76,-11.01 -8.96,-17.65 z"
         style="fill:#263238;stroke-width:0.925566"
         id="path68" />
      <path
         d="m 337.36,214.6 c 11.11,-1.75 13.79,20.6 3.5,22.22 -10.13,1.6 -12.81,-20.75 -3.5,-22.22 z"
         style="fill:#263238;stroke-width:0.925566"
         id="path69" />
      <path
         d="m 342.2,215.51 c 1.9,1 3.91,2.92 6,2.8 2.47,-0.13 4,-2.76 5.27,-5.27 0.14,-0.26 0.33,-0.09 0.38,0.2 0.63,4.26 -0.25,8.88 -4.26,10.19 -3.65,1.2 -6.84,-2.14 -8.37,-6.27 -0.22,-0.76 0.21,-2.04 0.98,-1.65 z"
         style="fill:#263238;stroke-width:0.925566"
         id="path70" />
      <path
         d="m 291.52,283.76 c 1.59,1.72 3.14,4 5.66,4.38 2.52,0.38 5.3,-0.62 7.57,-1.37 a 0.24,0.24 0 0 1 0.28,0.37 9.39,9.39 0 0 1 -9,3.34 c -3.13,-0.71 -4.55,-3.51 -5.17,-6.43 -0.11,-0.41 0.43,-0.54 0.66,-0.29 z"
         style="fill:#263238;stroke-width:0.925566"
         id="path71" />
      <path
         d="m 320.49,258.35 c 0,0 1.51,10.4 1.55,15.32 0,0.46 -1.18,0.68 -2.85,0.79 -0.08,0 -0.13,0.06 -0.19,0 -8.67,1.42 -17.42,-1.52 -22.74,-8.56 -0.35,-0.48 0.27,-1 0.72,-0.68 6.51,4.7 13.68,5.88 21.37,5.95 0.33,-1.36 -3.19,-17.73 -2.41,-17.79 2.68,-0.25 8,1.54 11.17,2.45 -2.52,-21.77 -8.52,-42.94 -10.71,-64.65 a 0.68,0.68 0 0 1 1.29,-0.33 c 7.85,21.76 11.3,46.73 14.49,69.14 0.42,2.8 -9.72,-0.82 -11.69,-1.64 z"
         style="fill:#263238;stroke-width:0.925566"
         id="path72" />
      <path
         d="m 278.05,267.75 a 31,31 0 1 1 29.72,-38.84 v 0 a 31,31 0 0 1 -22.08,37.82 30.51,30.51 0 0 1 -7.64,1.02 z m -0.44,-57.8 a 26.4,26.4 0 0 0 -6.61,0.88 26.83,26.83 0 1 0 6.61,-0.88 z"
         style="fill:#455a64;stroke-width:0.925566"
         id="path73" />
      <path
         d="m 348.53,258.55 c -11.85,0.09 -22.69,-12 -24.7,-28 a 36.92,36.92 0 0 1 3.8,-22.3 c 3.58,-6.5 9,-10.51 15.23,-11.29 6.23,-0.78 12.47,1.77 17.55,7.19 a 37,37 0 0 1 9.18,20.67 c 2.12,17 -6.42,32 -19,33.6 a 17.29,17.29 0 0 1 -2.06,0.13 z M 345,201 a 13.65,13.65 0 0 0 -1.57,0.11 c -4.89,0.61 -9.19,3.87 -12.12,9.18 A 32.88,32.88 0 0 0 327.93,230 c 1.85,14.68 11.73,25.58 22.11,24.27 10.38,-1.31 17.27,-14.3 15.44,-29 a 32.87,32.87 0 0 0 -8.1,-18.36 C 353.68,203 349.32,200.93 345,201 Z"
         style="fill:#455a64;stroke-width:0.925566"
         id="path74" />
      <path
         d="m 307.18,232.59 -3,-2.81 c 4.17,-4.5 14.29,-11.11 22.8,-4 l -2.65,3.18 c -7.65,-6.39 -16.76,3.23 -17.15,3.63 z"
         style="fill:#455a64;stroke-width:0.925566"
         id="path75" />
      <path
         d="m 177.45,258 -3.88,-1.43 c 0.67,-1.81 6.77,-17.78 15.76,-20.42 8.41,-2.44 57.92,-4.54 60.28,-4.61 l 0.13,4.14 c -16,0.48 -52.75,2.54 -59.24,4.45 -5.94,1.75 -11.43,13.5 -13.05,17.87 z"
         style="fill:#455a64;stroke-width:0.925566"
         id="path76" />
      <path
         d="m 216.2,251 c 0,0 -23.3,-30.67 -37.31,-22.24 -14.01,8.43 4.4,53.51 21.45,59.1 17.05,5.59 22.54,-10.09 22.54,-10.09 z"
         style="fill:#f7a9a0;stroke-width:0.925566"
         id="path77" />
      <path
         d="m 184.49,241.52 a 0.23,0.23 0 0 0 -0.07,0.45 c 12,4.31 18.61,15 23.4,26.15 -3.68,-4.22 -8.54,-6.42 -14.22,-2 -0.3,0.23 0,0.7 0.34,0.62 4.79,-1.23 8.3,-0.53 11.72,3.21 2.42,2.64 4.13,6 5.91,9.14 0.59,1 2.47,0.39 2,-0.81 l -0.1,-0.26 C 213.19,263 200.68,242.4 184.49,241.52 Z"
         style="fill:#263238;stroke-width:0.925566"
         id="path78" />
      <path
         d="m 151.71,203.46 c 11.09,12.3 31.15,14.2 47.7,6.62 10.85,-5 17.83,-18.41 28.87,-29.37 18.16,-18.06 55.83,-18.13 49.75,-50.34 -5.41,-28.64 -50.94,-37.62 -93.41,-19.32 -37.52,16.16 -57.83,64.78 -32.91,92.41 z"
         style="fill:#ffffff;stroke-width:0.925566"
         id="path79" />
    </g>
    <g
       id="freepik--speech-bubble-3--inject-140"
       transform="translate(0,-12)"
       style="stroke-width:0.925566">
      <circle
         cx="391.98001"
         cy="117.38"
         r="44.369999"
         transform="rotate(-45,391.97912,117.37693)"
         style="fill:#ffffff;stroke-width:0.925566"
         id="circle79" />
      <path
         d="m 436.35,117.38 c 0.22,17.6 -11,34.47 -27.33,41.13 -29.35,12.32 -61.85,-9.31 -61.9,-41.13 -0.05,-31.82 32.55,-53.46 61.88,-41.14 16.29,6.66 27.55,23.54 27.33,41.14 z m 0,0 c 0.14,-17.54 -11.11,-34.41 -27.45,-40.85 -28.85,-11.84 -60.88,9.65 -60.79,40.85 -0.1,31.19 31.94,52.7 60.79,40.84 16.34,-6.44 27.59,-23.3 27.45,-40.84 z"
         style="fill:#263238;stroke-width:0.925566"
         id="path80" />
      <path
         d="m 385.86,149.05 a 1.05,1.05 0 0 0 1.63,0.71 0.56,0.56 0 0 0 0.15,-0.1 1,1 0 0 0 -0.31,-1.76 1.09,1.09 0 0 0 -1.47,1.15 z"
         style="fill:#407bff;stroke-width:0.925566"
         id="path81" />
      <path
         d="m 410.72,95.11 a 1,1 0 0 0 0.57,1.68 h 0.17 a 1,1 0 0 0 1.09,-1.43 1.08,1.08 0 0 0 -1.83,-0.25 z"
         style="fill:#407bff;stroke-width:0.925566"
         id="path82" />
      <path
         d="m 365.06,105 a 1.05,1.05 0 0 0 -1.55,0.88 1.09,1.09 0 0 0 0,0.18 1,1 0 0 0 1.61,0.8 1.09,1.09 0 0 0 -0.06,-1.86 z"
         style="fill:#407bff;stroke-width:0.925566"
         id="path83" />
      <path
         d="m 382.85,146.57 a 0.66,0.66 0 0 0 0.65,-0.34 0.76,0.76 0 1 0 -0.65,0.34 z"
         style="fill:#407bff;stroke-width:0.925566"
         id="path84" />
      <path
         d="m 384.36,152.12 a 0.52,0.52 0 0 0 0.83,-0.62 0.52,0.52 0 0 0 -0.83,0.62 z"
         style="fill:#407bff;stroke-width:0.925566"
         id="path85" />
      <path
         d="m 417.77,122.68 a 0.51,0.51 0 0 0 1,0.19 0.51,0.51 0 0 0 -1,-0.19 z"
         style="fill:#407bff;stroke-width:0.925566"
         id="path86" />
      <path
         d="m 367.35,100.35 a 0.52,0.52 0 0 0 0,1 0.52,0.52 0 0 0 0,-1 z"
         style="fill:#407bff;stroke-width:0.925566"
         id="path87" />
      <path
         d="m 416.69,99.09 a 0.52,0.52 0 0 0 1,0.19 0.52,0.52 0 0 0 -1,-0.19 z"
         style="fill:#407bff;stroke-width:0.925566"
         id="path88" />
      <path
         d="m 411.58,126.78 a 61,61 0 0 1 -19.59,17 61,61 0 0 1 -19.59,-17 c -6.9,-9.13 -6.56,-23.42 3.31,-26.51 10.91,-3.42 16.28,13 16.28,13 0,0 5.44,-16.53 16.28,-13 9.83,3.2 10.21,17.38 3.31,26.51 z"
         style="fill:#407bff;stroke-width:0.925566"
         id="path89" />
      <rect
         x="341.37"
         y="119.29"
         width="1"
         height="0.75"
         style="fill:#407bff;stroke-width:0.925566"
         id="rect89" />
      <path
         d="m 339.36,120 h -2 v -0.75 h 2 z m -4,0 h -2 v -0.75 h 2 z m -4,0 h -2 v -0.75 h 2 z m -4,0 h -2 v -0.75 h 2 z m -4,0 h -2 v -0.75 h 2 z m -4,0 h -2 v -0.75 h 2 z m -4,0 h -2 v -0.75 h 2 z m -4,0 h -2 v -0.75 h 2 z m -4,0 h -2 v -0.75 h 2 z m -4,0 h -2 v -0.75 h 2 z m -4,0 h -2 v -0.75 h 2 z m -4,0 h -2 v -0.75 h 2 z m -4,0 h -2 v -0.75 h 2 z m -4,0 h -2 v -0.75 h 2 z m -4,0 h -2 v -0.75 h 2 z m -4,0 h -2 v -0.75 h 2 z m -4,0 h -2 v -0.75 h 2 z m -4,0 h -2 v -0.75 h 2 z m -4,0 h -2 v -0.75 h 2 z m -4,0 h -2 v -0.75 h 2 z m -4,0 h -2 v -0.75 h 2 z m -4,0 h -2 v -0.75 h 2 z m -4,0 h -2 v -0.75 h 2 z m -4,0 h -2 v -0.75 h 2 z m -4,0 h -2 v -0.75 h 2 z m -4,0 h -2 v -0.75 h 2 z m -4,0 h -2 v -0.75 h 2 z m -4,0 h -2 v -0.75 h 2 z m -4,0 h -2 v -0.75 h 2 z m -4,0 h -2 v -0.75 h 2 z m -4,0 h -2 v -0.75 h 2 z"
         style="fill:#407bff;stroke-width:0.925566"
         id="path90" />
      <polygon
         points="214.32,120.66 213.57,120.66 213.57,119.29 214.95,119.29 214.95,120.04 214.32,120.04 "
         style="fill:#407bff;stroke-width:0.925566"
         id="polygon90" />
      <path
         d="m 214.32,137.18 h -0.75 v -2.07 h 0.75 z m 0,-4.13 h -0.75 V 131 h 0.75 z m 0,-4.13 h -0.75 v -2.07 h 0.75 z m 0,-4.13 h -0.75 v -2.06 h 0.75 z"
         style="fill:#407bff;stroke-width:0.925566"
         id="path91" />
      <rect
         x="213.57001"
         y="139.24001"
         width="0.75"
         height="1"
         style="fill:#407bff;stroke-width:0.925566"
         id="rect91" />
      <circle
         cx="342.29999"
         cy="119.66"
         r="1.41"
         style="fill:#407bff;stroke-width:0.925566"
         id="circle91" />
      <path
         d="m 212.54,140.17 a 1.41,1.41 0 1 0 1.41,-1.41 1.41,1.41 0 0 0 -1.41,1.41 z"
         style="fill:#407bff;stroke-width:0.925566"
         id="path92" />
    </g>
    <g
       id="freepik--speech-bubble-2--inject-140"
       transform="translate(0,-12)"
       style="stroke-width:0.925566">
      <circle
         cx="131.19"
         cy="271.31"
         r="44.369999"
         transform="rotate(-67.82,131.17676,271.30083)"
         style="fill:#ffffff;stroke-width:0.925566"
         id="circle92" />
      <path
         d="m 175.56,271.31 c 0.22,17.6 -11,34.47 -27.33,41.13 -29.35,12.32 -61.85,-9.31 -61.91,-41.13 -0.06,-31.82 32.56,-53.46 61.91,-41.14 16.29,6.66 27.55,23.53 27.33,41.14 z m 0,0 c 0.14,-17.54 -11.12,-34.41 -27.45,-40.85 -28.85,-11.85 -60.88,9.65 -60.79,40.85 -0.1,31.19 31.94,52.7 60.79,40.84 16.33,-6.44 27.59,-23.3 27.45,-40.84 z"
         style="fill:#263238;stroke-width:0.925566"
         id="path93" />
      <path
         d="m 104.44,267.64 a 1,1 0 0 0 -1.54,0.88 0.53,0.53 0 0 0 0,0.18 1.05,1.05 0 0 0 1.61,0.8 1.09,1.09 0 0 0 -0.07,-1.86 z"
         style="fill:#407bff;stroke-width:0.925566"
         id="path94" />
      <path
         d="m 153.55,287.77 a 1.06,1.06 0 0 0 -1.55,0.89 0.47,0.47 0 0 0 0,0.17 1,1 0 0 0 1.61,0.8 1.09,1.09 0 0 0 -0.06,-1.86 z"
         style="fill:#407bff;stroke-width:0.925566"
         id="path95" />
      <path
         d="m 147.93,242.68 a 1,1 0 0 0 0.2,1.77 l 0.16,0.08 a 1,1 0 0 0 1.37,-1.16 1.09,1.09 0 0 0 -1.73,-0.69 z"
         style="fill:#407bff;stroke-width:0.925566"
         id="path96" />
      <path
         d="m 108.23,266.69 a 0.66,0.66 0 0 0 -0.11,0.73 0.74,0.74 0 0 0 1.33,0.16 0.76,0.76 0 0 0 -1.22,-0.89 z"
         style="fill:#407bff;stroke-width:0.925566"
         id="path97" />
      <path
         d="m 102.88,264.59 a 0.52,0.52 0 0 0 0,1 0.52,0.52 0 0 0 0,-1 z"
         style="fill:#407bff;stroke-width:0.925566"
         id="path98" />
      <path
         d="m 109.56,298.77 a 0.52,0.52 0 0 0 0,1 0.52,0.52 0 0 0 0,-1 z"
         style="fill:#407bff;stroke-width:0.925566"
         id="path99" />
      <path
         d="m 144.6,238.75 a 0.54039338,0.54039338 0 0 0 1,0.41 0.54039338,0.54039338 0 0 0 -1,-0.41 z"
         style="fill:#407bff;stroke-width:0.925566"
         id="path100" />
      <path
         d="m 156.93,279 a 0.52,0.52 0 0 0 0,1 0.52,0.52 0 0 0 0,-1 z"
         style="fill:#407bff;stroke-width:0.925566"
         id="path101" />
      <path
         d="m 142,250.5 a 8.1,8.1 0 1 1 -6.64,-9.34 8.1,8.1 0 0 1 6.64,9.34 z"
         style="fill:#407bff;stroke-width:0.925566"
         id="path102" />
      <rect
         x="124.09"
         y="255.89999"
         width="17.17"
         height="2.48"
         transform="rotate(9.58,132.72136,257.28831)"
         style="fill:#407bff;stroke-width:0.925566"
         id="rect102" />
      <rect
         x="124.09"
         y="255.89999"
         width="17.17"
         height="2.48"
         transform="rotate(9.58,132.72136,257.28831)"
         style="opacity:0.1;stroke-width:0.925566"
         id="rect103" />
      <rect
         x="109.61"
         y="289.51001"
         width="34.779999"
         height="2.48"
         transform="matrix(0.99,0.17,-0.17,0.99,50.18,-17.09)"
         style="fill:#407bff;stroke-width:0.925566"
         id="rect104" />
      <rect
         x="109.61"
         y="289.51001"
         width="34.779999"
         height="2.48"
         transform="matrix(0.99,0.17,-0.17,0.99,50.18,-17.09)"
         style="opacity:0.1;stroke-width:0.925566"
         id="rect105" />
      <rect
         x="108.45"
         y="296.35001"
         width="34.779999"
         height="2.48"
         transform="rotate(9.58,125.89775,297.75806)"
         style="fill:#407bff;stroke-width:0.925566"
         id="rect106" />
      <rect
         x="108.45"
         y="296.35001"
         width="34.779999"
         height="2.48"
         transform="rotate(9.58,125.89775,297.75806)"
         style="opacity:0.1;stroke-width:0.925566"
         id="rect107" />
      <rect
         x="110.33"
         y="291.92999"
         width="32.189999"
         height="4.4699998"
         transform="rotate(9.58,126.4531,294.34664)"
         style="fill:#407bff;stroke-width:0.925566"
         id="rect108" />
      <rect
         x="125.26"
         y="258.34"
         width="14.01"
         height="2.48"
         transform="rotate(9.59,132.20966,259.44331)"
         style="fill:#407bff;stroke-width:0.925566"
         id="rect109" />
      <path
         d="m 141.23,291.89 -28,-4.74 c 0,0 7.47,-5.31 10.11,-12.75 2.2,-6.28 4.14,-14.38 4.14,-14.38 l 9.26,1.56 c 0,0 -0.84,8.29 -0.81,14.95 -0.01,7.88 5.3,15.36 5.3,15.36 z"
         style="fill:#407bff;stroke-width:0.925566"
         id="path109" />
      <rect
         x="134.14"
         y="222.23"
         width="1"
         height="0.75"
         transform="rotate(-88.43,134.65777,222.61195)"
         style="fill:#407bff;stroke-width:0.925566"
         id="rect110" />
      <path
         d="m 135.09,220.19 h -0.75 v -1.92 h 0.75 z m 0.1,-3.85 h -0.75 l 0.06,-1.93 h 0.75 z m 0.11,-3.85 h -0.75 v -1.93 h 0.75 z m 0.11,-3.86 h -0.75 l 0.05,-1.92 h 0.75 z m 0.1,-3.85 h -0.75 l 0.06,-1.93 h 0.75 z m 0.11,-3.85 h -0.75 V 199 h 0.75 z m 0.11,-3.86 h -0.75 l 0.05,-1.93 h 0.75 z m 0.1,-3.85 h -0.75 l 0.06,-1.93 h 0.75 z"
         style="fill:#407bff;stroke-width:0.925566"
         id="path110" />
      <polygon
         points="135.94,189.37 135.19,189.34 135.23,187.98 136.59,187.98 136.59,188.73 135.96,188.73 "
         style="fill:#407bff;stroke-width:0.925566"
         id="polygon110" />
      <path
         d="m 148.64,188.73 h -2 V 188 h 2 z m -4,0 h -2 V 188 h 2 z m -4,0 h -2 V 188 h 2 z"
         style="fill:#407bff;stroke-width:0.925566"
         id="path111" />
      <rect
         x="150.64999"
         y="187.98"
         width="1"
         height="0.75"
         style="fill:#407bff;stroke-width:0.925566"
         id="rect111" />
      <path
         d="m 136,223.08 a 1.41,1.41 0 1 1 -1.37,-1.45 1.41,1.41 0 0 1 1.37,1.45 z"
         style="fill:#407bff;stroke-width:0.925566"
         id="path112" />
      <path
         d="m 151.58,189.76 a 1.41,1.41 0 1 0 -1.41,-1.41 1.41,1.41 0 0 0 1.41,1.41 z"
         style="fill:#407bff;stroke-width:0.925566"
         id="path113" />
    </g>
    <g
       id="freepik--speech-bubble-1--inject-140"
       transform="translate(0,-12)"
       style="stroke-width:0.925566">
      <circle
         cx="87.589996"
         cy="148.17"
         r="44.369999"
         transform="rotate(-13.03,87.576629,148.16257)"
         style="fill:#ffffff;stroke-width:0.925566"
         id="circle113" />
      <path
         d="m 132,148.17 c 0.22,17.6 -11,34.47 -27.33,41.13 C 75.32,201.62 42.82,180 42.77,148.17 42.72,116.34 75.28,94.71 104.63,107 c 16.29,6.66 27.55,23.54 27.33,41.14 z m 0,0 c 0.14,-17.54 -11.11,-34.41 -27.45,-40.84 -28.89,-11.85 -60.92,9.67 -60.83,40.84 -0.1,31.19 31.94,52.7 60.79,40.84 16.33,-6.44 27.59,-23.3 27.45,-40.84 z"
         style="fill:#263238;stroke-width:0.925566"
         id="path114" />
      <path
         d="m 107.74,132.12 a 1.05,1.05 0 0 0 1.3,-1.22 0.86,0.86 0 0 0 0,-0.17 1,1 0 0 0 -1.75,-0.41 1.09,1.09 0 0 0 0.45,1.8 z"
         style="fill:#407bff;stroke-width:0.925566"
         id="path115" />
      <path
         d="m 53.48,134.38 a 1.05,1.05 0 0 0 -1.54,0.89 0.47,0.47 0 0 0 0,0.17 1,1 0 0 0 1.61,0.8 1.09,1.09 0 0 0 -0.07,-1.86 z"
         style="fill:#407bff;stroke-width:0.925566"
         id="path116" />
      <path
         d="m 71.87,163.16 a 1,1 0 0 0 -1.54,0.88 1.1,1.1 0 0 0 0,0.18 1.05,1.05 0 0 0 1.61,0.8 1.09,1.09 0 0 0 -0.07,-1.86 z"
         style="fill:#407bff;stroke-width:0.925566"
         id="path117" />
      <path
         d="m 104.28,133.91 a 0.68,0.68 0 0 0 -0.06,-0.73 0.74,0.74 0 0 0 -1.33,0.14 0.76,0.76 0 0 0 1.39,0.59 z"
         style="fill:#407bff;stroke-width:0.925566"
         id="path118" />
      <path
         d="m 110,134.71 a 0.51419841,0.51419841 0 0 0 -0.24,-1 0.51419841,0.51419841 0 0 0 0.24,1 z"
         style="fill:#407bff;stroke-width:0.925566"
         id="path119" />
      <path
         d="m 57.91,132 a 0.52,0.52 0 0 0 0,1 0.52,0.52 0 0 0 0,-1 z"
         style="fill:#407bff;stroke-width:0.925566"
         id="path120" />
      <path
         d="m 76.76,169.32 a 0.52,0.52 0 0 0 0,1 0.52,0.52 0 0 0 0,-1 z"
         style="fill:#407bff;stroke-width:0.925566"
         id="path121" />
      <path
         d="m 124.78,157.1 a 0.52,0.52 0 0 0 0,1 0.52,0.52 0 0 0 0,-1 z"
         style="fill:#407bff;stroke-width:0.925566"
         id="path122" />
      <path
         d="m 51.67,145.32 -0.24,0.74 -0.52,1.58 -0.12,0.38 c -1.73,7.95 64.39,23.63 66.75,11.84 l 0.63,-1.83 c 0,0 0,-0.07 0,-0.11 l 0.1,-0.29 v 0 l -1.69,-1.2 c -5.64,-8 -33.78,-16.48 -49.83,-17.82 l -6,-2.16 v 0 0.07 0.08 a 20.81,20.81 0 0 0 -0.77,2.53 c 0.32,1.05 4.76,3.13 6.68,4.74 0.59,0.5 0.93,0.95 0.86,1.32 -0.41,2 -9.85,-0.09 -14.35,1.05 l -1.32,-0.84 z m 30.81,1.31 c -0.31,1.13 -2.82,1.42 -5.59,0.65 -2.77,-0.77 -4.75,-2.31 -4.44,-3.45 0.31,-1.14 2.82,-1.42 5.58,-0.65 2.76,0.77 4.76,2.31 4.45,3.45 z"
         style="fill:#407bff;stroke-width:0.925566"
         id="path123" />
      <path
         d="m 51.51,145.81 -0.08,0.25 c 0,0 0,0.05 0,0.07 -1.81,8.18 62.7,23.34 66.76,11.9 0,0 0,-0.07 0,-0.11 a 2.81,2.81 0 0 0 0.08,-0.31 v 0 c 2.12,-10.31 -40.26,-22.48 -56.16,-21.53 -0.81,0 -1.25,0.18 -1.42,0.38 a 0.21,0.21 0 0 0 0,0.06 0.12,0.12 0 0 0 0,0.08 c -0.31,1.31 7.85,4.67 7.5,6.38 -0.1,0.49 -0.69,0.76 -1.59,0.89 -3.73,0.55 -12.79,-1.17 -14.81,1.53 a 1.92,1.92 0 0 0 -0.28,0.41 z m 25.38,1.47 c -2.77,-0.77 -4.75,-2.31 -4.44,-3.45 0.31,-1.14 2.82,-1.42 5.58,-0.65 2.76,0.77 4.76,2.31 4.45,3.45 -0.31,1.14 -2.82,1.42 -5.59,0.65 z"
         style="fill:#407bff;stroke-width:0.925566"
         id="path124" />
      <path
         d="m 51.51,145.81 -0.08,0.25 c 0,0 0,0.05 0,0.07 -1.81,8.18 62.7,23.34 66.76,11.9 0,0 0,-0.07 0,-0.11 a 2.81,2.81 0 0 0 0.08,-0.31 v 0 c 2.12,-10.31 -40.26,-22.48 -56.16,-21.53 -0.81,0 -1.25,0.18 -1.42,0.38 a 0.21,0.21 0 0 0 0,0.06 0.12,0.12 0 0 0 0,0.08 c -0.31,1.31 7.85,4.67 7.5,6.38 -0.1,0.49 -0.69,0.76 -1.59,0.89 -3.73,0.55 -12.79,-1.17 -14.81,1.53 a 1.92,1.92 0 0 0 -0.28,0.41 z m 28.28,1.9 a 11,11 0 0 1 -2.9,-0.43 c -2.77,-0.77 -4.75,-2.31 -4.44,-3.45 a 1.34,1.34 0 0 1 0.91,-0.81 8.18,8.18 0 0 1 4.67,0.16 c 2.78,0.77 4.76,2.31 4.45,3.45 -0.2,0.71 -1.25,1.08 -2.69,1.08 z"
         style="opacity:0.2;stroke-width:0.925566"
         id="path125" />
      <path
         d="m 73.36,143 a 10.9,10.9 0 0 1 2.89,0.42 c 2.77,0.78 4.76,2.32 4.45,3.45 a 1.35,1.35 0 0 1 -0.91,0.82 c 1.44,0 2.49,-0.37 2.69,-1.08 0.31,-1.14 -1.67,-2.68 -4.45,-3.45 A 8.18,8.18 0 0 0 73.36,143 Z"
         style="fill:#407bff;stroke-width:0.925566"
         id="path126" />
      <path
         d="m 72.82,148.94 a 4.47,4.47 0 0 1 2.18,1.74 1.61,1.61 0 0 1 -0.83,2.44 c -2.19,0.8 -7.13,-0.55 -7,-3.49 0.05,-2.63 3.5,-1.79 5.65,-0.69 z"
         style="fill:#455a64;stroke-width:0.925566"
         id="path127" />
      <path
         d="m 83.79,155.25 -0.25,-0.18 a 3.51,3.51 0 0 1 -0.76,-0.61 2,2 0 0 1 -0.46,-0.84 1,1 0 0 1 0,-0.63 1.53,1.53 0 0 1 1.24,-1.16 8.73,8.73 0 0 1 2.88,0.12 c 1.4,0.1 2.54,-0.49 3.92,-0.06 1.38,0.43 3.16,1.71 3.16,3.19 -0.01,3.92 -7.81,1.39 -9.73,0.17 z"
         style="fill:#407bff;stroke-width:0.925566"
         id="path128" />
      <path
         d="m 91.78,144.23 c -1.94,1.53 0.58,3.65 2.06,4.15 1.48,0.5 5.73,1.71 6,-0.67 0.2,-1.43 -1.2,-2.23 -2.62,-2.6 -1.69,-1.06 -4.1,-1.93 -5.44,-0.88 z"
         style="fill:#263238;stroke-width:0.925566"
         id="path129" />
      <path
         d="m 111.15,153.4 c 1.33,2.5 -1.63,4.29 -3.77,4.22 a 21.33,21.33 0 0 1 -4.93,-1 c -1,-0.31 -2,-1 -2,-2.16 0,-2.32 2.4,-2.69 4.51,-2.55 2.35,-0.47 5.13,-0.52 6.19,1.49 z"
         style="fill:#ebebeb;stroke-width:0.925566"
         id="path130" />
      <path
         d="m 97.29,149.6 c 0,0 4.77,-4.31 9.51,-9 4.74,-4.69 17,-12.61 17.46,-12.41 0.46,0.2 -10.08,10.64 -15.26,14.66 -5.18,4.02 -10.7,7.74 -10.7,7.74 z"
         style="fill:#455a64;stroke-width:0.925566"
         id="path131" />
      <polygon
         points="97.28,149.29 100.83,145.78 102.53,147.88 98.48,150.68 "
         style="fill:#ebebeb;stroke-width:0.925566"
         id="polygon131" />
      <path
         d="m 97.28,149.29 a 4.66,4.66 0 0 0 -3.87,2.32 4.9,4.9 0 0 1 -3,2.57 c 0,0 5.77,1.32 8,-3.5 z"
         style="fill:#263238;stroke-width:0.925566"
         id="path132" />
      <path
         d="m 90.22,154.25 c 0.2,-0.31 1.76,-0.61 2.54,-1.77 0.78,-1.16 3.91,1.23 2.15,1.75 -2,0.59 -5.05,0.59 -4.69,0.02 z"
         style="fill:#407bff;stroke-width:0.925566"
         id="path133" />
      <rect
         x="123.83"
         y="114.49"
         width="1"
         height="0.75"
         style="fill:#407bff;stroke-width:0.925566"
         id="rect133" />
      <path
         d="m 170.48,115.24 h -2.08 v -0.75 h 2.08 z m -4.15,0 h -2.08 v -0.75 h 2.08 z m -4.15,0 h -2.08 v -0.75 h 2.08 z m -4.15,0 H 156 v -0.75 h 2 z m -4.15,0 h -2.08 v -0.75 h 2.08 z m -4.15,0 h -2.08 v -0.75 h 2.08 z m -4.15,0 h -2.08 v -0.75 h 2.08 z m -4.15,0 h -2.08 v -0.75 h 2.08 z m -4.15,0 h -2.08 v -0.75 h 2.08 z m -4.15,0 h -2.08 v -0.75 h 2.08 z m -4.15,0 h -2.08 v -0.75 h 2.1 z"
         style="fill:#407bff;stroke-width:0.925566"
         id="path134" />
      <polygon
         points="173.93,115.86 173.18,115.86 173.18,115.24 172.56,115.24 172.56,114.49 173.93,114.49 "
         style="fill:#407bff;stroke-width:0.925566"
         id="polygon134" />
      <rect
         x="173.17999"
         y="117.95"
         width="0.75"
         height="2.0899999"
         style="fill:#407bff;stroke-width:0.925566"
         id="rect134" />
      <rect
         x="173.17999"
         y="122.12"
         width="0.75"
         height="1"
         style="fill:#407bff;stroke-width:0.925566"
         id="rect135" />
      <path
         d="m 123.9,116.27 a 1.41,1.41 0 1 1 1.41,-1.41 1.41,1.41 0 0 1 -1.41,1.41 z"
         style="fill:#407bff;stroke-width:0.925566"
         id="path135" />
      <path
         d="m 172.15,123.05 a 1.41,1.41 0 1 0 1.41,-1.41 1.41,1.41 0 0 0 -1.41,1.41 z"
         style="fill:#407bff;stroke-width:0.925566"
         id="path136" />
    </g>
    <g
       id="freepik--Gears--inject-140"
       transform="translate(0,-12)"
       style="stroke-width:0.925566">
      <path
         d="m 201.12,184 v -3.69 l -4.4,-0.44 a 19.55,19.55 0 0 0 -1.55,-5.76 l 3.57,-2.56 -1.85,-3.21 -4,1.82 a 19.82,19.82 0 0 0 -4.23,-4.2 l 1.81,-4 -3.2,-1.85 -2.58,3.58 a 19.83,19.83 0 0 0 -5.76,-1.53 l -0.44,-4.37 h -3.69 l -0.44,4.39 a 19.87,19.87 0 0 0 -5.76,1.56 l -2.6,-3.55 -3.19,1.81 1.81,4 a 20.29,20.29 0 0 0 -4.2,4.23 l -4,-1.81 -1.86,3.2 3.59,2.57 a 19.67,19.67 0 0 0 -1.53,5.77 l -4.37,0.44 v 3.69 l 4.38,0.44 a 20.21,20.21 0 0 0 1.57,5.76 l -3.58,2.56 1.86,3.21 4,-1.81 a 20.24,20.24 0 0 0 4.22,4.2 l -1.8,4 3.2,1.86 2.57,-3.59 a 19.59,19.59 0 0 0 5.77,1.53 l 0.44,4.37 h 3.69 l 0.44,-4.38 a 20.21,20.21 0 0 0 5.76,-1.57 l 2.56,3.57 3.21,-1.85 -1.82,-4 a 19.82,19.82 0 0 0 4.2,-4.23 l 4,1.81 1.85,-3.2 -3.58,-2.57 a 20.24,20.24 0 0 0 1.53,-5.76 z m -24.44,6.7 a 8.49,8.49 0 1 1 8.49,-8.48 8.48,8.48 0 0 1 -8.49,8.51 z"
         style="fill:#407bff;stroke-width:0.925566"
         id="path137" />
      <g
         style="opacity:0.6;stroke-width:0.925566"
         id="g138">
        <path
           d="m 230.43,165.84 0.12,-4.71 -3.6,-0.38 a 13.7,13.7 0 0 0 -2,-4.88 l 2.37,-2.63 -3.25,-3.42 -2.8,2.27 A 13.49,13.49 0 0 0 216.4,150 l -0.17,-3.43 -4.72,-0.13 -0.35,3.43 a 13.77,13.77 0 0 0 -5.14,2 l -2.4,-2.16 -3.42,3.24 2,2.51 a 13.63,13.63 0 0 0 -2.31,5.19 l -3,0.16 -0.12,4.71 3.05,0.32 a 13.85,13.85 0 0 0 2.16,5.37 l -2,2.2 3.24,3.42 2.41,-2 A 13.61,13.61 0 0 0 211,177 l 0.15,3.06 4.72,0.13 0.34,-3.24 a 13.79,13.79 0 0 0 5.11,-2.18 l 2.43,2.19 3.43,-3.24 -2.19,-2.7 a 13.56,13.56 0 0 0 2,-5 z M 213.66,168 a 4.76,4.76 0 1 1 4.76,-4.76 4.76,4.76 0 0 1 -4.76,4.76 z"
           style="fill:#407bff;stroke-width:0.925566"
           id="path138" />
      </g>
      <g
         style="opacity:0.6;stroke-width:0.925566"
         id="g139">
        <path
           d="m 190.17,147.68 1.47,-4.47 -3.34,-1.4 a 13.79,13.79 0 0 0 -0.5,-5.25 l 3,-1.84 -2.12,-4.21 -3.34,1.37 a 13.46,13.46 0 0 0 -4.06,-3.45 l 0.83,-3.34 -4.49,-1.48 -1.32,3.18 a 14,14 0 0 0 -5.48,0.4 l -1.68,-2.76 -4.14,2.12 1.23,3 a 13.66,13.66 0 0 0 -3.7,4.31 l -2.95,-0.72 -1.47,4.47 2.83,1.19 a 13.76,13.76 0 0 0 0.52,5.76 l -2.54,1.54 2.08,4.2 2.87,-1.18 a 13.43,13.43 0 0 0 4.44,3.62 l -0.73,3 4.48,1.48 1.26,-3 a 13.83,13.83 0 0 0 5.52,-0.62 l 1.7,2.8 4.21,-2.12 -1.33,-3.28 a 13.51,13.51 0 0 0 3.37,-4.18 z M 173.47,145 a 4.75,4.75 0 1 1 5.93,-3.19 4.75,4.75 0 0 1 -5.93,3.19 z"
           style="fill:#407bff;stroke-width:0.925566"
           id="path139" />
      </g>
    </g>
  </g>
</svg>
