<?xml version="1.0" encoding="UTF-8" standalone="no"?>
<!-- Created with Inkscape (http://www.inkscape.org/) -->

<svg
   width="152.76837"
   height="178.26208"
   viewBox="0 0 40.419965 47.165176"
   version="1.1"
   id="svg1"
   inkscape:version="1.3.2 (091e20e, 2023-11-25, custom)"
   sodipodi:docname="rect3921.svg"
   xml:space="preserve"
   xmlns:inkscape="http://www.inkscape.org/namespaces/inkscape"
   xmlns:sodipodi="http://sodipodi.sourceforge.net/DTD/sodipodi-0.dtd"
   xmlns="http://www.w3.org/2000/svg"
   xmlns:svg="http://www.w3.org/2000/svg"><sodipodi:namedview
     id="namedview1"
     pagecolor="#505050"
     bordercolor="#eeeeee"
     borderopacity="1"
     inkscape:showpageshadow="0"
     inkscape:pageopacity="0"
     inkscape:pagecheckerboard="false"
     inkscape:deskcolor="#505050"
     inkscape:document-units="px"
     showborder="false"
     inkscape:zoom="0.5483631"
     inkscape:cx="713.94301"
     inkscape:cy="1746.1058"
     inkscape:window-width="1366"
     inkscape:window-height="745"
     inkscape:window-x="-8"
     inkscape:window-y="-8"
     inkscape:window-maximized="1"
     inkscape:current-layer="layer1"
     showguides="true" /><defs
     id="defs1" /><g
     inkscape:label="Layer 1"
     inkscape:groupmode="layer"
     id="layer1"
     transform="translate(-983.31668,-804.27381)"><g
       id="g1873"
       transform="matrix(0.46196144,0,0,0.46196144,493.06509,491.08951)"
       style="stroke-width:2.16469"><path
         style="fill:#12254c;fill-opacity:1;stroke-width:2.16469"
         d="m 1109.3491,762.21587 c -3.1135,-0.11222 -3.2756,-0.25765 -3.8459,-3.44851 -0.2241,-1.25452 -0.625,-2.70718 -0.8908,-3.22811 -0.9387,-1.84011 -3.5286,-3.10475 -5.6932,-2.78013 -0.781,0.1171 -1.7909,0.6245 -3.4484,1.73268 -1.3487,0.90175 -2.6065,1.56709 -2.9627,1.56709 -0.4701,0 -1.4565,-0.83064 -4.1058,-3.45734 -4.1709,-4.13538 -4.1694,-4.13051 -2.2674,-6.74552 1.5246,-2.09621 1.9443,-3.09022 1.9443,-4.60599 0,-2.05775 -1.1576,-4.01294 -2.8904,-4.88222 -0.4852,-0.2434 -1.9561,-0.63324 -3.2689,-0.86615 -3.4705,-0.61604 -3.3327,-0.35655 -3.3327,-6.27676 0,-2.73487 0.105,-5.034 0.2416,-5.28908 0.2804,-0.52405 1.1643,-0.83009 3.5127,-1.21589 0.9269,-0.15233 2.053,-0.43059 2.5022,-0.61834 1.2601,-0.52644 2.4627,-1.96365 2.899,-3.46433 0.5945,-2.04515 0.3258,-3.07403 -1.5248,-5.83954 -2.1704,-3.24347 -2.2065,-3.10898 1.9415,-7.25687 1.7983,-1.79826 3.4742,-3.2822 3.7243,-3.29765 1.0436,-0.0644 1.5106,0.13016 3.123,1.30024 0.9321,0.67638 2.0512,1.37879 2.4868,1.56084 1.7028,0.71152 4.4233,0.15398 5.8816,-1.20531 0.8742,-0.81483 1.4527,-2.13392 1.7426,-3.9733 0.1447,-0.91859 0.3743,-2.08922 0.5102,-2.60131 0.3833,-1.44549 1.0755,-1.6245 6.2814,-1.6245 5.5577,0 5.4502,-0.0644 6.1167,3.64675 0.561,3.12315 1.2141,4.2006 3.1375,5.17594 1.4945,0.75779 3.1751,0.88114 4.4948,0.32977 0.447,-0.18682 1.6114,-0.92061 2.5878,-1.63066 2.7297,-1.98545 2.7154,-1.98996 6.823,2.10403 1.8735,1.86734 3.4724,3.65318 3.553,3.96851 0.1715,0.67188 -0.2287,1.5074 -1.738,3.62817 -1.7083,2.40031 -1.9609,4.23491 -0.8744,6.34721 1.0055,1.95436 2.33,2.71215 5.6102,3.2099 1.695,0.2571 2.186,0.43399 2.7381,0.98601 l 0.6728,0.67279 v 4.75115 c 0,5.89371 0.043,5.80964 -3.2526,6.37885 -2.7736,0.47898 -3.869,0.92908 -4.7765,1.96264 -1.1323,1.28967 -1.5147,2.41909 -1.4097,4.16326 0.085,1.40621 0.2066,1.68631 1.6255,3.73385 2.2766,3.28524 2.3067,3.16519 -1.8336,7.31345 -4.1492,4.157 -4.1066,4.14596 -7.3419,1.91324 -2.3954,-1.6531 -3.6496,-1.98462 -5.5231,-1.46011 -1.3724,0.38423 -3.1152,1.88868 -3.5906,3.09942 -0.1979,0.50418 -0.4996,1.83183 -0.6702,2.95031 -0.2211,1.4487 -0.4694,2.21864 -0.8635,2.6772 -0.5294,0.61585 -0.6618,0.64446 -3.0694,0.66332 -1.384,0.011 -3.6231,-0.0202 -4.9761,-0.069 z m 6.5837,-18.32267 c 5.0952,-1.30309 9.3556,-5.24557 11.1379,-10.30671 0.795,-2.25774 0.7807,-6.66264 -0.029,-9.1371 -3.0447,-9.29586 -14.1864,-13.53822 -23.2526,-8.85377 -2.1802,1.12647 -5.2792,4.18027 -6.4068,6.31327 -2.2948,4.34097 -2.2958,9.91761 0,14.26897 1.1223,2.12951 4.2123,5.16031 6.4507,6.32726 3.5854,1.86927 8.1672,2.39479 12.103,1.38808 z m -11.4989,-9.71109 c -3.9206,-2.26041 -7.3423,-4.30353 -7.6041,-4.54031 -0.7155,-0.6475 -0.5962,-1.45699 0.3154,-2.13907 1.04,-0.77821 14.2141,-8.19469 14.5565,-8.19469 0.3261,0 14.2969,7.94503 14.9043,8.4758 0.252,0.22022 0.4068,0.63398 0.3651,0.97589 -0.061,0.49508 -1.2365,1.28985 -7.09,4.79116 -3.8597,2.3087 -7.1399,4.31991 -7.2893,4.46939 -0.1494,0.14938 -0.4422,0.27164 -0.6506,0.27164 -0.2085,0 -3.5867,-1.84941 -7.5073,-4.10981 z m 1.9252,-2.82015 c -0.9963,-1.31956 -1.0388,-1.34504 -2.2449,-1.34504 -0.7231,0 -1.1953,0.10165 -1.147,0.2469 0.093,0.27835 4.1649,2.66882 4.3125,2.53158 0.052,-0.0488 -0.3621,-0.69368 -0.9206,-1.43344 z m 3.8679,0.11526 v -1.4603 h -0.9735 c -0.5355,0 -0.9735,0.0745 -0.9735,0.16475 0,0.18591 1.7399,2.75585 1.8657,2.75585 0.045,0 0.081,-0.65716 0.081,-1.4603 z m 3.955,0.2342 c 0.5019,-0.65909 0.9127,-1.31624 0.9127,-1.46039 0,-0.15785 -0.4115,-0.23236 -1.0344,-0.18728 l -1.0344,0.0745 -0.073,1.39949 c -0.041,0.76966 0.015,1.39324 0.1217,1.3856 0.1071,-0.009 0.6054,-0.55312 1.1073,-1.2122 z m 4.1161,-0.13568 c 1.0492,-0.61503 1.9076,-1.21745 1.9076,-1.3386 0,-0.12115 -0.4745,-0.22022 -1.0545,-0.22022 -1.092,0 -1.1066,0.012 -2.9102,2.373 -0.408,0.53399 0.1013,0.33253 2.0571,-0.81418 z m -11.7549,-5.34814 c 0.4458,-0.74546 0.7671,-1.39894 0.7139,-1.45211 -0.1069,-0.10698 -4.3161,2.20806 -4.6845,2.57647 -0.146,0.14589 0.3937,0.23116 1.4643,0.23116 h 1.6955 z m 3.6838,-0.22647 c 0,-0.87011 -0.042,-1.582 -0.093,-1.582 -0.1022,0 -1.8538,2.89107 -1.8538,3.05968 0,0.057 0.438,0.10431 0.9735,0.10431 h 0.9735 z m 5.1111,1.38726 c 0,-0.23475 -2.1458,-3.21266 -2.315,-3.21266 -0.065,0 -0.1188,0.76662 -0.1188,1.7037 v 1.70369 h 1.2169 c 0.6693,0 1.2169,-0.0874 1.2169,-0.19473 z m 5.5978,0.0911 c 0,-0.13053 -4.2578,-2.57381 -4.4853,-2.57381 -0.092,0 0.2491,0.60105 0.759,1.33575 l 0.9274,1.33565 h 1.3994 c 0.7697,0 1.3995,-0.0432 1.3995,-0.10045 z"
         id="path1849"
         sodipodi:nodetypes="sssssssssscsssssssssssscsssscsssssscssssssssssscscscsscsccssssscsssssssssccssscccsccccccsssssscsscssssscsssscsscsscscc" /><path
         id="path1846"
         style="color:#000000;opacity:1;fill:#002060;fill-opacity:1;stroke-width:2.16495;stroke-linecap:round;stroke-linejoin:round;stroke-dasharray:none"
         d="m 1112.2862,677.94463 c -28.1148,0 -51.047,22.93436 -51.047,51.04908 0,28.11471 22.9322,51.04856 51.047,51.04856 14.2556,0 27.1721,-5.90312 36.4494,-15.38149 l -8.6651,-9.95753 c -6.8973,7.45392 -16.7715,12.10882 -27.7843,12.10882 -20.9652,0 -37.8184,-16.85322 -37.8184,-37.81836 0,-20.96514 16.8532,-37.81836 37.8184,-37.81836 9.6079,0 18.3462,3.5467 25.001,9.39942 l 8.629,-9.91567 c -8.9943,-7.9027 -20.7655,-12.71447 -33.63,-12.71447 z" /><path
         id="path1851"
         style="fill:#27488f;fill-opacity:1;stroke-width:2.16469"
         d="m 1111.8088,695.71924 c -5.092,0.003 -5.8008,0.18932 -6.1811,1.62315 -0.1359,0.51209 -0.3653,1.68281 -0.51,2.60139 -0.2899,1.83938 -0.8683,3.15806 -1.7425,3.97289 -1.4583,1.35929 -4.179,1.91713 -5.8818,1.20561 -0.4356,-0.18205 -1.5546,-0.88477 -2.4867,-1.56115 -1.6124,-1.17007 -2.0792,-1.36457 -3.1228,-1.30017 -0.2501,0.0154 -1.926,1.49973 -3.7243,3.29799 -4.148,4.14788 -4.1119,4.01293 -1.9415,7.2564 1.8506,2.76551 2.1189,3.79481 1.5244,5.83995 -0.4363,1.50068 -1.6389,2.93795 -2.899,3.46439 -0.4492,0.18775 -1.5753,0.46572 -2.5022,0.61805 -2.3484,0.3858 -3.232,0.6919 -3.5124,1.21595 -0.1366,0.25508 -0.2419,2.55421 -0.2419,5.28908 0,5.92021 -0.1373,5.66058 3.3332,6.27662 1.3128,0.23291 2.7833,0.6227 3.2685,0.8661 1.7328,0.86928 2.8903,2.82464 2.8903,4.88239 0,1.51577 -0.4195,2.50971 -1.9441,4.60592 -1.902,2.615 -1.9034,2.61046 2.2675,6.74584 2.6493,2.6267 3.6356,3.45715 4.1057,3.45715 0.3562,0 1.6139,-0.6656 2.9626,-1.56734 1.6575,-1.10818 2.6674,-1.61562 3.4484,-1.73271 2.1646,-0.32462 4.7545,0.94008 5.6932,2.78019 0.2658,0.52093 0.6668,1.97371 0.8909,3.22822 0.5703,3.19086 0.7323,3.33615 3.8458,3.44837 0.6687,0.0241 1.5683,0.0216 2.4598,0.0341 v -17.86816 c -2.7777,-10e-4 -5.5958,-0.63554 -7.9758,-1.87637 -6.5524,-3.41598 -10.7612,-12.44223 -6.4507,-20.59616 1.1276,-2.133 4.2266,-5.18684 6.4068,-6.31331 2.5838,-1.33505 5.3342,-1.92245 8.0197,-1.89704 z" /></g></g></svg>
