<?xml version="1.0" encoding="UTF-8" standalone="no"?>
<!-- Created with Inkscape (http://www.inkscape.org/) -->

<svg
   width="283.36389"
   height="331.6084"
   viewBox="0 0 74.973363 87.738055"
   version="1.1"
   id="svg1"
   inkscape:version="1.3.2 (091e20e, 2023-11-25, custom)"
   sodipodi:docname="For Exhibits.svg"
   xml:space="preserve"
   xmlns:inkscape="http://www.inkscape.org/namespaces/inkscape"
   xmlns:sodipodi="http://sodipodi.sourceforge.net/DTD/sodipodi-0.dtd"
   xmlns="http://www.w3.org/2000/svg"
   xmlns:svg="http://www.w3.org/2000/svg"><sodipodi:namedview
     id="namedview1"
     pagecolor="#505050"
     bordercolor="#eeeeee"
     borderopacity="1"
     inkscape:showpageshadow="0"
     inkscape:pageopacity="0"
     inkscape:pagecheckerboard="false"
     inkscape:deskcolor="#505050"
     inkscape:document-units="px"
     showborder="false"
     inkscape:zoom="0.16"
     inkscape:cx="-28.125"
     inkscape:cy="7734.375"
     inkscape:window-width="1366"
     inkscape:window-height="745"
     inkscape:window-x="-8"
     inkscape:window-y="-8"
     inkscape:window-maximized="1"
     inkscape:current-layer="layer1"
     showguides="false"
     showgrid="false" /><defs
     id="defs1" /><g
     inkscape:label="Layer 1"
     inkscape:groupmode="layer"
     id="layer1"
     transform="translate(-395.42542,-2079.9939)"><path
       style="fill:#023184;fill-opacity:1;stroke-width:0.999999"
       d="m 435.40008,2167.5922 c -8.31664,-0.6796 -16.24799,-3.777 -23.20516,-9.0621 -1.81307,-1.3773 -5.17223,-4.6661 -6.84125,-6.6978 -5.40942,-6.585 -8.70239,-14.3219 -9.69029,-22.7674 -0.32053,-2.7398 -0.31636,-7.7278 0.007,-10.3522 1.22795,-9.9188 5.59191,-18.8823 12.60505,-25.8909 5.60285,-5.5991 12.7928,-9.6557 20.44534,-11.5351 13.73845,-3.3742 27.85176,-0.072 38.77506,9.0761 l 0.71192,0.5962 -3.45254,3.9363 c -3.03924,3.465 -3.4861,3.9109 -3.73331,3.7256 -0.15443,-0.1154 -0.98708,-0.7447 -1.85031,-1.3976 -9.94328,-7.5201 -23.09701,-8.8214 -34.34969,-3.3982 -9.78182,4.7141 -16.42925,13.4986 -18.50342,24.4515 -0.4123,2.1774 -0.48712,7.8384 -0.13651,10.3079 0.87733,6.1752 3.41898,11.9381 7.32561,16.6107 5.1908,6.2081 12.05192,10.1692 20.05435,11.5784 2.8015,0.4931 7.52971,0.535 10.3747,0.091 6.77551,-1.0553 12.79865,-3.9888 17.9145,-8.7253 l 1.02133,-0.9456 0.45249,0.3992 c 0.24884,0.2196 1.9423,1.864 3.76314,3.6545 l 3.31068,3.2556 -1.43179,1.3699 c -4.99796,4.7825 -11.49005,8.4253 -18.38128,10.314 -4.8151,1.3197 -10.16899,1.8147 -15.18738,1.4048 z m -0.71817,-12.9507 c -0.75073,-0.37 -0.94638,-0.8224 -1.36067,-3.1472 -0.19595,-1.0998 -0.50461,-2.307 -0.68573,-2.6834 -1.03063,-2.1417 -3.83402,-3.3777 -6.0332,-2.6601 -0.48673,0.1585 -1.48593,0.7094 -2.2205,1.2235 -2.32165,1.6255 -2.45692,1.7032 -2.95575,1.7032 -0.26867,0 -0.65263,-0.084 -0.85315,-0.187 -0.20062,-0.1034 -1.66253,-1.4733 -3.24886,-3.0465 -2.9668,-2.9422 -3.39339,-3.5476 -3.15035,-4.4727 0.0567,-0.2147 0.59077,-1.0669 1.18735,-1.8931 1.50796,-2.0887 1.80552,-2.7657 1.7979,-4.0902 -0.0103,-1.8074 -0.80646,-3.4361 -2.11698,-4.331 -0.87047,-0.5945 -1.43241,-0.7691 -3.72692,-1.1588 -3.20394,-0.5443 -3.21023,-0.5553 -3.21023,-5.8535 0,-5.4354 -0.007,-5.4225 3.49467,-6.0102 1.43041,-0.24 2.31104,-0.4832 2.88713,-0.7965 1.41985,-0.7729 2.63313,-2.8732 2.63313,-4.5581 0,-1.1092 -0.43878,-2.0997 -1.81351,-4.0942 -1.42668,-2.0698 -1.57491,-2.5162 -1.12257,-3.3811 0.12961,-0.248 1.54046,-1.7399 3.13509,-3.3163 3.74971,-3.7057 3.66258,-3.6833 6.43733,-1.6543 1.87443,1.3706 2.45439,1.614 3.85318,1.616 1.327,0 2.28946,-0.3121 3.3534,-1.0931 1.16516,-0.8552 1.64727,-1.8773 2.09566,-4.4426 0.20664,-1.1822 0.50457,-2.3461 0.66217,-2.5867 0.53967,-0.8237 1.06124,-0.9102 5.4722,-0.9096 5.38646,0 5.25319,-0.074 5.81859,3.2848 0.50957,3.0264 1.16685,4.1229 3.03011,5.0538 0.86965,0.4345 1.20249,0.5081 2.28504,0.5052 1.54373,-0.021 2.01349,-0.2046 4.26005,-1.814 1.4719,-1.0545 1.74229,-1.1874 2.41597,-1.1874 h 0.75854 l 3.21844,3.2184 3.21839,3.2182 v 0.7544 c 0,0.6726 -0.14202,0.9558 -1.31053,2.6128 -0.74858,1.0614 -1.40265,2.1874 -1.5253,2.6255 -0.48105,1.7182 0.20386,4.0347 1.52801,5.1683 0.98348,0.8418 1.52171,1.0474 3.73899,1.429 1.09605,0.1889 2.23305,0.4641 2.52659,0.6127 0.97622,0.4938 1.05225,0.8925 1.05156,5.5109 0,5.498 0.0851,5.3441 -3.30702,5.9237 -3.03826,0.5192 -4.10092,1.1571 -5.03166,3.0195 -0.42886,0.8584 -0.50868,1.2112 -0.50868,2.2488 0,1.5333 0.16426,1.9259 1.73965,4.161 1.12621,1.5976 1.26533,1.8782 1.26533,2.5524 v 0.7577 l -3.21844,3.2184 -3.21837,3.2182 h -0.74649 c -0.66075,0 -0.96273,-0.1516 -2.6297,-1.32 -2.09242,-1.4649 -2.98276,-1.7875 -4.49967,-1.631 -1.89802,0.1949 -3.74738,1.6015 -4.28706,3.2582 -0.13979,0.429 -0.37705,1.5686 -0.5276,2.5326 -0.50453,3.232 -0.39575,3.1732 -5.86415,3.1681 -3.48154,0 -4.22781,-0.047 -4.69138,-0.2755 z m 7.1346,-16.592 c 4.47919,-0.7267 8.66274,-3.7939 10.69908,-7.8439 1.16792,-2.3229 1.41525,-3.4155 1.41525,-6.2528 0,-2.1555 -0.0543,-2.6787 -0.39,-3.7563 -1.28699,-4.1324 -4.54088,-7.7073 -8.52488,-9.3659 -4.55376,-1.8959 -10.09908,-1.3891 -14.1444,1.2925 -4.36206,2.8915 -6.77841,7.5187 -6.52151,12.4886 0.11772,2.2781 0.40662,3.3791 1.44765,5.5179 1.89914,3.9019 5.69169,6.8427 10.01978,7.7696 1.61275,0.3452 4.37164,0.4143 5.99903,0.1499 z m -4.58006,-6.5621 c -0.82636,-0.4866 -3.87639,-2.2513 -6.77791,-3.9215 -5.29981,-3.0507 -5.65935,-3.3166 -5.65935,-4.1867 0,-0.1689 0.13151,-0.4605 0.29214,-0.6475 0.40496,-0.4709 13.61887,-7.8772 14.05412,-7.8772 0.19401,0 1.30882,0.56 2.4773,1.2444 1.1685,0.6846 4.22798,2.4388 6.79892,3.8983 4.92666,2.7969 5.10984,2.9453 4.86072,3.9379 -0.0662,0.2633 -0.29813,0.5265 -0.56654,0.6416 -0.70743,0.3039 -12.69322,7.4536 -12.80877,7.6404 -0.24273,0.3928 -1.21517,0.1258 -2.67063,-0.7297 z m -2.19266,-4.154 c -0.069,-0.1155 -0.49268,-0.7158 -0.94141,-1.3356 l -0.81587,-1.1268 h -1.34998 c -0.74247,0 -1.31456,0.036 -1.27128,0.079 0.0943,0.095 4.3784,2.5861 4.45255,2.5897 0.0284,0 -0.005,-0.091 -0.0741,-0.206 z m 2.71983,-2.4081 c -0.0398,-0.04 -0.50092,-0.05 -1.02524,-0.023 l -0.95332,0.052 0.97608,1.3354 0.97618,1.3356 0.0491,-1.3143 c 0.0271,-0.723 0.0155,-1.3466 -0.0228,-1.386 z m 3.71969,1.2811 1.03321,-1.3354 h -1.09581 -1.09581 v 1.3354 c 0,0.7344 0.0284,1.3356 0.0626,1.3356 0.0348,0 0.52755,-0.6012 1.09581,-1.3356 z m 4.0195,-0.1672 c 0.96268,-0.5677 1.78155,-1.0629 1.81984,-1.1003 0.0384,-0.038 -0.48761,-0.066 -1.16861,-0.062 l -1.23815,0.021 -0.75129,1.0241 c -0.41315,0.5631 -0.81502,1.131 -0.89294,1.2619 -0.17201,0.289 -0.16081,0.2831 2.23115,-1.1276 z m -11.14388,-4.9565 c 0.43011,-0.7064 0.75688,-1.3093 0.72617,-1.3402 -0.046,-0.046 -4.37316,2.367 -4.59596,2.5631 -0.0384,0.034 0.64082,0.06 1.50906,0.06 h 1.57865 z m 3.46188,-0.2554 c 0,-1.3523 -0.0279,-1.4997 -0.22861,-1.2104 -0.38779,0.5587 -1.60783,2.5843 -1.60783,2.6694 0,0.045 0.41322,0.079 0.91823,0.079 h 0.91821 z m 4.67437,1.4292 c 0,-0.097 -1.67041,-2.4085 -2.02684,-2.8029 -0.081,-0.09 -0.1434,0.5095 -0.1434,1.3773 v 1.5361 h 1.08514 c 0.59683,0 1.08512,-0.052 1.08512,-0.1086 z m 4.17361,-0.529 c -2.40986,-1.4066 -3.38924,-1.9136 -3.25706,-1.6865 0.0765,0.131 0.47947,0.7086 0.89553,1.2824 l 0.75648,1.0436 h 1.34508 1.3451 z"
       id="path1031"
       inkscape:export-filename="Development Works\MBLearn_Development\MBLearn\src\assets\CompleLearn Logo.svg"
       inkscape:export-xdpi="96"
       inkscape:export-ydpi="96" /></g></svg>
