<?xml version="1.0" encoding="UTF-8" standalone="no"?>
<!-- Created with Inkscape (http://www.inkscape.org/) -->

<svg
   width="321.26752mm"
   height="248.25217mm"
   viewBox="0 0 321.26752 248.25217"
   version="1.1"
   id="svg1"
   inkscape:version="1.3.2 (091e20e, 2023-11-25, custom)"
   sodipodi:docname="certificateDefaultBackground.svg"
   xmlns:inkscape="http://www.inkscape.org/namespaces/inkscape"
   xmlns:sodipodi="http://sodipodi.sourceforge.net/DTD/sodipodi-0.dtd"
   xmlns="http://www.w3.org/2000/svg"
   xmlns:svg="http://www.w3.org/2000/svg">
  <sodipodi:namedview
     id="namedview1"
     pagecolor="#505050"
     bordercolor="#ffffff"
     borderopacity="0"
     inkscape:showpageshadow="0"
     inkscape:pageopacity="0"
     inkscape:pagecheckerboard="0"
     inkscape:deskcolor="#505050"
     inkscape:document-units="px"
     inkscape:zoom="0.23384891"
     inkscape:cx="690.61686"
     inkscape:cy="596.53902"
     inkscape:window-width="1366"
     inkscape:window-height="745"
     inkscape:window-x="-32000"
     inkscape:window-y="-32000"
     inkscape:window-maximized="0"
     inkscape:current-layer="layer1" />
  <defs
     id="defs1">
    <clipPath
       clipPathUnits="userSpaceOnUse"
       id="clipPath1">
      <g
         id="g4">
        <g
           id="g3"
           transform="matrix(13.668446,0,0,13.668446,3447.2068,59.791668)">
          <g
             id="g2"
             style="stroke-width:0.214488"
             transform="matrix(1.605871,0,0,1.605871,-1903.0766,-547.70152)">
            <rect
               style="opacity:0.299169;fill:#808080;fill-opacity:1;stroke:none;stroke-width:0.467185;stroke-dasharray:none"
               id="rect2"
               width="88.900002"
               height="215.63542"
               x="1006.2863"
               y="340.62994"
               inkscape:export-filename="Desktop\Style Guide.svg"
               inkscape:export-xdpi="96"
               inkscape:export-ydpi="96"
               rx="0"
               ry="0" />
          </g>
        </g>
      </g>
    </clipPath>
    <clipPath
       clipPathUnits="userSpaceOnUse"
       id="clipPath4">
      <g
         id="g7">
        <g
           id="g6"
           transform="matrix(13.668446,0,0,13.668446,3447.2068,59.791668)">
          <g
             id="g5"
             style="stroke-width:0.214488"
             transform="matrix(1.605871,0,0,1.605871,-1903.0766,-547.70152)">
            <rect
               style="opacity:0.299169;fill:#808080;fill-opacity:1;stroke:none;stroke-width:0.467185;stroke-dasharray:none"
               id="rect4"
               width="88.900002"
               height="215.63542"
               x="1006.2863"
               y="340.62994"
               inkscape:export-filename="Desktop\Style Guide.svg"
               inkscape:export-xdpi="96"
               inkscape:export-ydpi="96"
               rx="0"
               ry="0" />
          </g>
        </g>
      </g>
    </clipPath>
    <clipPath
       clipPathUnits="userSpaceOnUse"
       id="clipPath7">
      <g
         id="g10">
        <g
           id="g9"
           transform="matrix(13.668446,0,0,13.668446,3447.2068,59.791668)">
          <g
             id="g8"
             style="stroke-width:0.214488"
             transform="matrix(1.605871,0,0,1.605871,-1903.0766,-547.70152)">
            <rect
               style="opacity:0.299169;fill:#808080;fill-opacity:1;stroke:none;stroke-width:0.467185;stroke-dasharray:none"
               id="rect7"
               width="88.900002"
               height="215.63542"
               x="1006.2863"
               y="340.62994"
               inkscape:export-filename="Desktop\Style Guide.svg"
               inkscape:export-xdpi="96"
               inkscape:export-ydpi="96"
               rx="0"
               ry="0" />
          </g>
        </g>
      </g>
    </clipPath>
    <clipPath
       clipPathUnits="userSpaceOnUse"
       id="clipPath10">
      <g
         id="g13">
        <g
           id="g12"
           transform="matrix(13.668446,0,0,13.668446,3447.2068,59.791668)">
          <g
             id="g11"
             style="stroke-width:0.214488"
             transform="matrix(1.605871,0,0,1.605871,-1903.0766,-547.70152)">
            <rect
               style="opacity:0.299169;fill:#808080;fill-opacity:1;stroke:none;stroke-width:0.467185;stroke-dasharray:none"
               id="rect10"
               width="88.900002"
               height="215.63542"
               x="1006.2863"
               y="340.62994"
               inkscape:export-filename="Desktop\Style Guide.svg"
               inkscape:export-xdpi="96"
               inkscape:export-ydpi="96"
               rx="0"
               ry="0" />
          </g>
        </g>
      </g>
    </clipPath>
  </defs>
  <g
     inkscape:label="Layer 1"
     inkscape:groupmode="layer"
     id="layer1"
     transform="translate(253.99306,-202.45657)">
    <rect
       style="fill:#ffffff;stroke:none;stroke-width:0;stroke-linecap:round;stroke-linejoin:round;stroke-dasharray:none"
       id="rect3"
       width="407.25604"
       height="314.69785"
       x="-296.98734"
       y="169.23373"
       inkscape:export-filename="certificate_default.png"
       inkscape:export-xdpi="96"
       inkscape:export-ydpi="96" />
    <path
       id="path3"
       clip-path="url(#clipPath10)"
       style="color:#000000;opacity:0.2;fill:#023184;fill-opacity:1;stroke-width:1.95764;stroke-linecap:round;stroke-linejoin:round;-inkscape-stroke:none"
       d="m -219.42514,250.52237 a 8.8071682,6.298951 0 0 0 -6.22598,1.84537 l -28.34194,20.27008 v 17.81235 l 34.56792,-24.72356 71.43905,51.09456 -18.45882,13.2023 0.50333,0.27647 c 4.40488,2.42432 7.14342,6.99658 7.24348,11.99875 l 29.39511,-21.02404 a 8.8071682,6.298951 0 0 0 -0.002,-8.90747 l -83.89101,-59.99893 a 8.8071682,6.298951 0 0 0 -6.22597,-1.84536 z m 5.1e-4,56.01002 a 14.697751,10.288425 0 0 0 -14.69781,10.28826 14.697751,10.288425 0 0 0 14.69781,10.28827 14.697751,10.288425 0 0 0 14.69782,-10.28827 14.697751,10.288425 0 0 0 -14.69782,-10.28826 z m 21.6762,15.10192 c -1.36513,4.16287 -4.46455,7.4549 -8.36848,9.71259 l 27.17199,14.94172 0.25683,48.3707 a 6.2712401,6.2712401 0 0 0 6.30401,6.23579 6.2712401,6.2712401 0 0 0 6.23889,-6.30401 l -0.28008,-52.05574 a 6.2718671,6.2718671 0 0 0 -3.24735,-5.46064 z m -56.24463,21.55786 v 17.81235 l 28.33936,20.26853 a 8.8071682,6.298951 0 0 0 12.45712,0.003 l 26.60096,-19.02261 -0.0605,-11.37967 -5.05551,-2.77967 -27.71562,19.82101 z m 111.26143,11.48044 a 7.5262439,7.5262439 0 0 0 -2.90576,0.65164 c -4.28662,1.9119 -8.61742,3.84583 -12.95012,5.80585 l 0.0904,16.63619 c 2.77186,-1.30729 5.56342,-2.6048 8.40104,-3.88503 v 51.39945 h -103.89702 v 15.04972 h 111.42214 a 7.5262439,7.5262439 0 0 0 7.52513,-7.52512 v -70.6081 a 7.5262439,7.5262439 0 0 0 -7.68584,-7.5246 z m -111.26143,19.99258 v 17.68316 c 11.09543,7.0215 20.93012,15.05816 28.58379,25.09717 a 7.5262439,7.5262439 0 0 0 12.1145,-0.1912 c 7.04377,-9.87811 16.29227,-17.73586 26.8578,-24.5339 l -0.093,-17.66042 c -12.20992,7.02281 -23.60342,15.32702 -33.04605,26.13225 -9.97166,-10.87151 -21.815,-19.3112 -34.41702,-26.52706 z"
       transform="matrix(1.2676539,0,0,1.2676539,24.987953,-87.411131)" />
    <path
       id="path6"
       style="opacity:0.2;fill:#023184;fill-opacity:1;stroke-width:8.23841;stroke-linecap:round;stroke-linejoin:round"
       d="m -68.73119,169.23374 a 3.9301521,2.9073167 0 0 0 1.014061,2.5214 l 29.764141,22.01783 a 3.9301521,2.9073167 0 0 0 5.557685,0 L -2.6337832,171.7571 a 3.9301521,2.9073167 0 0 0 1.0821885,-2.52336 H -11.602461 l 0.632151,0.46772 -24.203835,17.9046 -24.206457,-17.90656 0.629531,-0.46576 z m 26.332186,0 a 7.4019293,5.18135 0 0 0 -0.178837,0.46772 7.4019293,5.18135 0 0 0 7.40173,5.18102 7.4019293,5.18135 0 0 0 7.401731,-5.18102 7.4019293,5.18135 0 0 0 -0.0583,-0.46772 z m 46.8335158,0 a 3.9301521,2.9073167 0 0 0 1.0140611,2.5214 l 29.7641401,22.01783 a 3.9301521,2.9073167 0 0 0 5.55703,0 l 29.76152,-22.01587 a 3.9301521,2.9073167 0 0 0 1.08219,-2.52336 H 61.56324 l 0.632151,0.46772 -24.203835,17.9046 -24.207111,-17.90656 0.629531,-0.46576 z m 26.3315302,0 a 7.4019293,5.18135 0 0 0 -0.178837,0.46772 7.4019293,5.18135 0 0 0 7.402385,5.18102 7.4019293,5.18135 0 0 0 7.401731,-5.18102 7.4019293,5.18135 0 0 0 -0.0583,-0.46772 z m 46.833516,0 a 3.9301521,2.9073167 0 0 0 1.014062,2.5214 l 29.76414,22.01783 a 3.9301521,2.9073167 0 0 0 1.89121,0.75203 v -7.57532 l -23.318823,-17.25018 0.62953,-0.46576 z m 26.332182,0 a 7.4019293,5.18135 0 0 0 -0.17883,0.46772 7.4019293,5.18135 0 0 0 6.51606,5.01463 v -5.48235 z M -0.41568801,180.70088 a 3.9301521,2.9073167 0 0 0 -2.77687709,0.8516 L -32.95343,203.5677 a 3.9301521,2.9073167 0 0 0 -0.0033,4.10931 l 29.7641399,22.01783 a 3.9301521,2.9073167 0 0 0 5.5576851,0 l 29.761519,-22.01586 a 3.9301521,2.9073167 0 0 0 0,-4.11128 L 2.3624985,181.54987 a 3.9301521,2.9073167 0 0 0 -2.77818651,-0.84899 z m 73.16570201,0 a 3.9301521,2.9073167 0 0 0 -2.776878,0.8516 l -29.76152,22.01522 a 3.9301521,2.9073167 0 0 0 -0.0026,4.10931 l 29.76414,22.01783 a 3.9301521,2.9073167 0 0 0 5.557684,0 l 29.76152,-22.01586 a 3.9301521,2.9073167 0 0 0 0,-4.11128 L 75.5282,181.54987 a 3.9301521,2.9073167 0 0 0 -2.778186,-0.84899 z m -73.16635738,7.0159 24.20645538,17.90656 -24.20383514,17.9046 -24.20645486,-17.90657 z m 73.16570138,0 24.206455,17.90656 -24.203835,17.9046 -24.206455,-17.90657 z m -73.16504601,12.72488 a 7.4019293,5.18135 0 0 0 -7.40173119,5.18168 7.4019293,5.18135 0 0 0 7.40173119,5.18101 7.4019293,5.18135 0 0 0 7.40238531,-5.18101 7.4019293,5.18135 0 0 0 -7.40238531,-5.18168 z m 73.16570201,0 a 7.4019293,5.18135 0 0 0 -7.401732,5.18168 7.4019293,5.18135 0 0 0 7.401732,5.18101 7.4019293,5.18135 0 0 0 7.401729,-5.18101 7.4019293,5.18135 0 0 0 -7.401729,-5.18168 z m -107.926125,16.1811 a 3.9301521,2.9073167 0 0 0 -2.776877,0.8516 l -29.76152,22.01522 a 3.9301521,2.9073167 0 0 0 -0.0026,4.10931 l 29.764141,22.01783 a 3.9301521,2.9073167 0 0 0 5.557685,0 l 29.7615198,-22.01586 a 3.9301521,2.9073167 0 0 0 0,-4.11128 L -32.397924,217.47175 a 3.9301521,2.9073167 0 0 0 -2.778187,-0.84899 z m 73.165046,0 a 3.9301521,2.9073167 0 0 0 -2.776222,0.8516 L 5.4511931,239.48958 a 3.9301521,2.9073167 0 0 0 -0.00262,4.10931 l 29.7641399,22.01783 a 3.9301521,2.9073167 0 0 0 5.55703,0 l 29.76152,-22.01586 a 3.9301521,2.9073167 0 0 0 0,-4.11128 l -29.76414,-22.01783 a 3.9301521,2.9073167 0 0 0 -2.778188,-0.84899 z m 72.280035,0.13036 a 3.9301521,2.9073167 0 0 0 -1.89121,0.72124 l -29.761519,22.01522 a 3.9301521,2.9073167 0 0 0 -0.0026,4.10931 l 29.764139,22.01783 a 3.9301521,2.9073167 0 0 0 1.89121,0.75204 v -7.57534 L 86.950147,241.54325 110.26897,224.29307 Z m -145.445737,6.88553 24.206457,17.90657 -24.203835,17.90459 -24.206457,-17.90656 z m 73.165048,0 24.20711,17.90657 -24.203835,17.90459 -24.207111,-17.90656 z m -73.164392,12.72489 a 7.4019293,5.18135 0 0 0 -7.40173,5.18168 7.4019293,5.18135 0 0 0 7.40173,5.18101 7.4019293,5.18135 0 0 0 7.401731,-5.18101 7.4019293,5.18135 0 0 0 -7.401731,-5.18168 z m 73.165701,0 a 7.4019293,5.18135 0 0 0 -7.402385,5.18168 7.4019293,5.18135 0 0 0 7.402385,5.18101 7.4019293,5.18135 0 0 0 7.401731,-5.18101 7.4019293,5.18135 0 0 0 -7.401731,-5.18168 z m 72.27938,0.16639 a 7.4019293,5.18135 0 0 0 -6.51606,5.01529 7.4019293,5.18135 0 0 0 6.51606,5.01462 z M -0.41568801,252.54464 a 3.9301521,2.9073167 0 0 0 -2.77687709,0.85159 L -32.95343,275.41145 a 3.9301521,2.9073167 0 0 0 -0.0033,4.10932 l 29.7641399,22.01783 a 3.9301521,2.9073167 0 0 0 5.5576851,0 l 29.761519,-22.01587 a 3.9301521,2.9073167 0 0 0 0,-4.11128 L 2.3624985,253.39362 a 3.9301521,2.9073167 0 0 0 -2.77818651,-0.84898 z m 73.16570201,0 a 3.9301521,2.9073167 0 0 0 -2.776878,0.85159 l -29.76152,22.01522 a 3.9301521,2.9073167 0 0 0 -0.0026,4.10932 l 29.76414,22.01783 a 3.9301521,2.9073167 0 0 0 5.557684,0 l 29.76152,-22.01587 a 3.9301521,2.9073167 0 0 0 0,-4.11128 L 75.5282,253.39362 a 3.9301521,2.9073167 0 0 0 -2.778186,-0.84898 z M -0.41634338,259.56053 23.790112,277.46709 -0.41372314,295.37169 -24.620178,277.46513 Z m 73.16570138,0 24.206455,17.90656 -24.203835,17.9046 -24.206455,-17.90656 z m -73.16504601,12.72489 a 7.4019293,5.18135 0 0 0 -7.40173119,5.18167 7.4019293,5.18135 0 0 0 7.40173119,5.18102 7.4019293,5.18135 0 0 0 7.40238531,-5.18102 7.4019293,5.18135 0 0 0 -7.40238531,-5.18167 z m 73.16570201,0 a 7.4019293,5.18135 0 0 0 -7.401732,5.18167 7.4019293,5.18135 0 0 0 7.401732,5.18102 7.4019293,5.18135 0 0 0 7.401729,-5.18102 7.4019293,5.18135 0 0 0 -7.401729,-5.18167 z" />
  </g>
</svg>
